<svg width="255" height="327" viewBox="0 0 255 327" fill="none" xmlns="http://www.w3.org/2000/svg">
<path d="M109.798 149.543C112.073 150.097 129.441 150.5 131.677 149.553C133.916 148.602 136.117 147.422 138.459 147.022C140.821 146.623 143.186 147.042 145.506 147.47C149.602 148.228 153.897 149.108 156.996 152.076C157.199 152.273 157.406 152.618 157.212 152.85C157.099 152.985 156.913 152.985 156.751 152.969C152.534 152.57 148.57 150.4 144.314 150.671C147.936 151.951 151.561 153.23 155.182 154.51C156.107 154.836 157.138 155.274 157.464 156.293C157.509 156.434 157.538 156.592 157.493 156.741C157.37 157.137 156.877 157.144 156.519 157.069C152.82 156.293 149.118 155.516 145.419 154.739C148.773 156.057 152.112 157.795 155.466 159.113C155.946 159.303 156.529 159.761 156.291 160.286C156.126 160.651 155.688 160.705 155.334 160.699C152.031 160.651 148.77 159.722 145.622 158.765C147.833 160.012 149.991 161.369 152.086 162.829C152.695 163.252 153.855 163.7 153.365 164.631C149.66 164.802 146.321 162.349 142.626 162.256C140.641 162.204 138.662 162.839 136.674 163.058C134.96 163.249 133.214 163.12 131.632 162.465C130.868 162.149 130.153 161.714 129.379 161.434C128.635 161.163 127.852 161.041 127.069 160.915C124.759 160.551 109.982 158.932 107.672 158.568L109.792 149.536L109.798 149.543Z" fill="#F9D9BD"/>
<g style="mix-blend-mode:multiply" opacity="0.89">
<path d="M143.347 159.142C140.003 163.874 133.671 162.984 129.006 159.922C126.679 158.462 123.438 159.787 120.338 159.448L120.145 159.832C122.455 160.196 124.762 160.56 127.072 160.924C127.852 161.047 128.638 161.173 129.383 161.443C130.156 161.724 130.874 162.159 131.635 162.475C133.214 163.129 134.963 163.255 136.678 163.068C138.666 162.849 140.644 162.214 142.629 162.265C144.784 162.32 146.818 163.174 148.873 163.848C146.573 162.746 144.598 161.24 143.347 159.152V159.142Z" fill="#FCDBBD"/>
</g>
<g style="mix-blend-mode:multiply" opacity="0.89">
<path d="M145.4 156.557C145.229 156.708 145.02 156.747 144.929 156.763C143.57 157.024 142.191 156.628 141.14 155.677C141.005 155.554 140.873 155.422 140.741 155.29C140.309 154.858 139.903 154.449 139.426 154.429C139.168 154.42 138.888 154.523 138.592 154.636L138.453 154.687C136.165 155.519 133.23 155.242 131.832 152.747C131.751 152.602 131.803 152.418 131.954 152.338C132.105 152.257 132.292 152.312 132.373 152.457C133.594 154.636 136.198 154.861 138.234 154.123L138.369 154.075C138.711 153.946 139.068 153.814 139.452 153.83C140.177 153.859 140.712 154.397 141.185 154.874C141.311 155 141.437 155.126 141.562 155.242C142.465 156.06 143.647 156.399 144.81 156.177C144.942 156.151 144.984 156.125 145.004 156.093C145.055 156.009 145.029 155.832 144.926 155.616C144.259 154.21 143.289 153.056 142.432 152.086C141.814 151.387 141.147 150.665 140.38 150.181C139.597 149.688 138.701 149.446 137.792 149.475C137.622 149.482 137.477 149.35 137.473 149.185C137.467 149.018 137.602 148.879 137.773 148.872C138.811 148.837 139.829 149.114 140.718 149.672C141.556 150.197 142.258 150.958 142.906 151.69C143.792 152.692 144.794 153.885 145.493 155.361C145.693 155.783 145.706 156.135 145.535 156.409C145.497 156.47 145.451 156.518 145.406 156.56L145.4 156.557Z" fill="#FCDBBD"/>
</g>
<path d="M84.8977 100.967C84.8977 100.967 90.9296 104.955 91.8576 111.156C92.7855 117.358 96.3492 138.226 102.246 141.662C108.142 145.098 129.895 149.83 129.895 149.83L127.175 160.924C127.175 160.924 98.2277 159.751 91.0391 152.892C83.8505 146.036 77.5513 124.801 77.5513 124.801L84.8945 100.967H84.8977Z" fill="#0CB5CC"/>
<path d="M34.8356 88.5576C34.8356 88.5576 29.3515 88.8477 25.3657 93.4281C21.3831 98.0052 2.39185 120.946 1.67331 126.38C0.954776 131.818 4.01903 137.633 7.75671 138.867C11.4944 140.099 31.1816 118.499 31.433 117.909C31.6811 117.319 34.8356 88.5576 34.8356 88.5576Z" fill="#0CB5CC"/>
<path d="M8.09502 121.49C10.4826 118.325 14.0205 116.92 17.4199 115.343C16.6466 114.438 15.8056 112.691 16.8882 111.872C17.7099 111.176 18.7603 110.924 19.8075 110.438C20.0685 110.315 20.1458 109.886 20.2296 109.687C20.7258 103.285 23.3422 97.0866 27.7694 92.5771C29.6479 90.6141 32.2321 88.8832 34.8194 88.7027C34.5778 90.9107 31.6714 117.339 31.433 117.906C31.1849 118.496 11.4944 140.095 7.75669 138.864C6.40662 138.419 5.14354 137.375 4.11568 135.966C3.77091 134.696 3.6388 133.336 3.81924 131.86C4.29289 128.001 5.74608 124.556 8.0918 121.49H8.09502Z" fill="#0D9DB1"/>
<path d="M70.3209 237.401C70.3209 237.401 61.779 296.353 63.0356 298.367C65.4683 302.255 77.9219 314.168 75.5987 316.131C73.2756 318.094 60.2227 319.86 52.206 313.211C45.2075 307.405 48.8679 298.699 48.8679 298.699L49.3544 237.782L70.3209 237.401Z" fill="#FCDBBF"/>
<g opacity="0.89" style="mix-blend-mode:multiply">
<path d="M49.1868 258.782L49.3543 237.782L70.3208 237.401C70.3208 237.401 68.9353 246.965 67.3628 258.52C61.4406 259.884 55.1961 259.887 49.1868 258.782Z" fill="#FCDBBF"/>
</g>
<path d="M63.7702 286.818C63.0613 293.249 62.7004 297.832 63.0355 298.367C63.7476 299.508 65.3233 301.339 67.1341 303.405C64.3856 302.716 61.1731 302.928 58.7211 303.747C56.8136 304.366 55.6278 306.197 55.7535 308.234C52.8697 305.813 50.4434 303.07 48.4199 300.092C48.6487 299.221 48.8678 298.699 48.8678 298.699L48.9838 284.294C52.918 287.534 58.6599 288.852 63.7734 286.815L63.7702 286.818Z" fill="#F7F8F8"/>
<path d="M49.9087 308.053C49.2707 307.031 48.6101 306.039 47.956 305.056C47.7949 303.044 48.1171 301.255 48.4232 300.092C50.4468 303.07 52.8762 305.81 55.7568 308.234C55.628 306.197 56.8169 304.366 58.7244 303.747C61.1797 302.928 64.3889 302.715 67.1374 303.405C70.5078 307.251 74.6933 311.915 75.6761 314.481C72.8986 314.571 70.2017 315.386 67.4339 315.538C60.4289 316.173 53.3338 313.585 49.9119 308.057L49.9087 308.053Z" fill="#0CB5CC"/>
<path d="M49.9087 308.053C53.3306 313.581 60.4258 316.17 67.4307 315.535C70.2017 315.383 72.8987 314.568 75.6729 314.477C75.9629 315.235 75.9726 315.812 75.5988 316.128C73.2757 318.091 60.2228 319.857 52.2061 313.207C49.2031 310.716 48.1623 307.695 47.9529 305.052C48.607 306.035 49.2675 307.028 49.9055 308.05L49.9087 308.053Z" fill="#0D9DB1"/>
<path d="M18.1935 235.451C18.1935 235.451 16.7113 295.324 15.213 297.126C12.3163 300.611 -1.24245 310.506 0.616728 312.817C2.4759 315.128 14.3946 318.906 22.9558 313.549C30.4312 308.869 28.4077 299.656 28.4077 299.656L37.7358 239.084L18.1935 235.451Z" fill="#FCDBBF"/>
<g opacity="0.89" style="mix-blend-mode:multiply">
<path d="M34.5166 259.964L37.7323 239.084L18.19 235.451C18.19 235.451 17.9484 245.163 17.5649 256.883C22.8815 259.155 28.72 260.129 34.5166 259.964Z" fill="#FCDBBF"/>
</g>
<path d="M16.3791 285.545C16.0085 292.04 15.6122 296.649 15.2127 297.129C14.362 298.151 12.5963 299.724 10.5696 301.494C13.2504 301.236 16.218 301.945 18.38 303.138C20.062 304.05 20.8804 306.052 20.4325 308.053C23.5161 306.097 26.2259 303.75 28.5974 301.107C28.5233 300.208 28.4041 299.656 28.4041 299.656L30.6113 285.335C26.4128 287.943 20.8321 288.359 16.3791 285.545Z" fill="#F7F8F8"/>
<path d="M25.9296 308.788C26.69 307.873 27.4666 306.99 28.2367 306.113C28.7103 304.14 28.6974 302.313 28.5975 301.11C26.226 303.753 23.5162 306.097 20.4326 308.057C20.8805 306.052 20.0621 304.053 18.3801 303.141C16.2181 301.948 13.2505 301.236 10.5697 301.497C6.80299 304.791 2.13734 308.775 0.809814 311.17C3.39075 311.692 5.78157 312.917 8.34639 313.501C14.7939 315.219 21.8439 313.749 25.9296 308.791V308.788Z" fill="#0CB5CC"/>
<path d="M25.9296 308.788C21.8439 313.749 14.7938 315.215 8.34635 313.497C5.78153 312.917 3.3907 311.689 0.80977 311.167C0.416669 311.876 0.313561 312.447 0.61322 312.817C2.47239 315.128 14.3911 318.906 22.9523 313.549C26.1583 311.541 27.618 308.701 28.2366 306.113C27.4665 306.99 26.69 307.873 25.9296 308.788Z" fill="#0D9DB1"/>
<path d="M10.2087 175.407C10.2732 175.101 10.3376 174.794 10.3988 174.488C10.9273 171.884 11.2366 169.173 12.1614 166.665C17.6068 162.942 32.4673 157.482 44.1507 157.808C58.7406 158.214 79.9004 170.794 79.9004 170.794L77.3259 252.132C77.3259 252.132 63.6447 258.788 44.0057 258.159C24.3636 257.531 11.9906 254.382 12.2645 253.566C12.4932 252.873 10.7694 195.092 10.2087 175.407Z" fill="#084266"/>
<path d="M10.3988 174.488C10.9273 171.884 11.2366 169.173 12.1614 166.665C17.6068 162.942 32.4673 157.482 44.1507 157.808C58.7406 158.214 79.9004 170.794 79.9004 170.794L79.2173 192.323C72.657 194.724 66.2482 197.832 59.1917 197.677C57.2906 197.696 55.6087 196.046 53.9364 195.35C48.6875 193.735 43.2324 195.214 37.7548 194.315C29.8831 200.936 19.5884 196.658 10.7114 192.903C10.5084 185.905 10.3312 179.736 10.2087 175.407C10.2732 175.101 10.3376 174.794 10.3988 174.488Z" fill="#0B3251"/>
<path d="M55.8633 95.1622C51.5295 93.6505 48.4942 90.8977 46.0776 87.6067C49.97 86.7396 52.9569 86.2594 53.2662 86.3077L59.7911 87.3488L66.3159 88.39C66.6155 88.4383 69.2319 89.7567 72.6055 91.71C68.3909 96.055 61.8726 97.2058 55.8633 95.159V95.1622Z" fill="#FCDBBF"/>
<g opacity="0.89" style="mix-blend-mode:multiply">
<path d="M46.6609 87.4778C50.2665 86.6913 52.9731 86.2594 53.2663 86.3077L59.7911 87.3489L66.3159 88.39C66.5221 88.4222 67.811 89.0508 69.6831 90.0694C63.1131 96.5611 54.4617 91.175 46.6609 87.4778Z" fill="#FCDBBF"/>
</g>
<path d="M43.4547 100.191C40.0908 96.4548 41.689 92.1162 43.7769 88.1418C44.5696 87.9516 45.3397 87.7711 46.0776 87.6068C48.4909 90.8978 51.5294 93.6473 55.8632 95.1622C56.8073 95.4846 57.761 95.7199 58.7212 95.881C57.9382 97.9182 56.8331 99.8135 55.1253 101.048C51.6357 104.094 46.3353 103.449 43.4547 100.187V100.191Z" fill="white"/>
<path d="M28.0175 122.954C26.371 111.859 22.817 101.116 27.8629 96.3001C30.6822 93.6086 37.4971 89.6633 43.777 88.1418C41.6891 92.1162 40.0877 96.4516 43.4548 100.191C46.3386 103.453 51.639 104.101 55.1254 101.051C56.8299 99.8135 57.9383 97.9214 58.7213 95.8843C58.8341 95.9036 58.9468 95.9262 59.0596 95.9423C59.1531 96.8867 59.2497 97.8279 59.4946 98.7466C60.9639 104.587 68.8517 107.846 73.4303 102.972C76.1692 100.007 74.9899 96.155 74.1489 92.6223C79.952 96.0873 86.1062 101.899 88.0395 105.503C91.3358 111.65 85.8259 118.058 79.6459 131.795C73.4658 145.53 83.2256 158.123 78.4247 184.658C78.4247 184.658 72.889 189.245 47.6404 185.986L47.6307 186.057C46.4321 185.876 45.2753 185.689 44.1476 185.499C43.0166 185.332 41.8566 185.148 40.6612 184.945L40.6741 184.874C15.6606 180.113 12.8445 174.195 12.8445 174.195C16.5338 147.48 30.2311 137.855 28.0175 122.957V122.954Z" fill="#084266"/>
<g opacity="0.38" style="mix-blend-mode:multiply">
<path d="M71.4003 110.086C69.1609 113.519 69.1609 117.848 65.8808 120.681C64.2407 122.025 62.4492 123.07 60.5095 122.174C57.9737 120.83 55.2864 119.489 52.4541 119.785C51.1105 119.933 50.5144 121.426 49.3222 122.174C46.3385 124.414 42.9069 125.755 40.5193 128.443C39.3271 129.487 37.9835 130.235 36.4917 130.683C33.305 131.579 30.2472 132.475 27.1475 133.33C28.1431 129.968 28.562 126.622 28.0174 122.957C27.4213 118.934 26.5739 114.957 25.9746 111.292C27.3795 110.412 28.7618 109.606 30.0764 108.597C31.2686 107.701 32.6122 107.404 33.8076 106.805C36.7913 105.312 39.4754 103.072 42.7587 102.179C43.4869 101.96 44.2151 101.731 44.9401 101.506C47.9238 103.565 52.1738 103.633 55.1285 101.054C55.8922 100.5 56.5366 99.8102 57.0876 99.0399C57.2358 99.0399 57.3808 99.0431 57.529 99.0463C58.2347 99.0656 58.9371 99.1269 59.6395 99.23C61.0508 103.649 66.1643 106.418 70.4369 104.945C70.8815 105.438 71.3069 105.957 71.7032 106.512C72.4507 107.556 72.1511 108.9 71.4035 110.093L71.4003 110.086Z" fill="#CBADBE"/>
</g>
<g opacity="0.71" style="mix-blend-mode:multiply">
<path d="M33.8044 106.805C32.6122 107.401 31.2686 107.701 30.0732 108.597C28.7585 109.609 27.3762 110.415 25.9714 111.292C24.921 104.852 24.6439 99.3719 27.8595 96.3033C30.6789 93.6118 37.4937 89.6664 43.7737 88.145C41.6857 92.1194 40.0843 96.4548 43.4515 100.194C43.8929 100.693 44.3956 101.135 44.9369 101.506C44.2087 101.731 43.4805 101.96 42.7555 102.179C39.4721 103.075 36.7881 105.312 33.8044 106.805Z" fill="#CBADBE"/>
</g>
<g opacity="0.71" style="mix-blend-mode:multiply">
<path d="M57.0845 99.0366C57.7579 98.0857 58.2896 97.0059 58.7214 95.8842C58.8341 95.9036 58.9469 95.9261 59.0597 95.9422C59.1531 96.8867 59.2498 97.8279 59.4947 98.7465C59.5366 98.9077 59.5817 99.0689 59.6332 99.2268C58.934 99.1269 58.2284 99.0624 57.5227 99.0431C57.3745 99.0398 57.2295 99.0366 57.0813 99.0366H57.0845Z" fill="#CBADBE"/>
</g>
<g opacity="0.71" style="mix-blend-mode:multiply">
<path d="M28.0175 122.954C26.371 111.859 22.817 101.116 27.8628 96.3001C30.6822 93.6086 37.497 89.6633 43.777 88.1418C41.689 92.1162 40.0876 96.4516 43.4547 100.191C46.3386 103.453 51.639 104.101 55.1253 101.051C56.8298 99.8135 57.9383 97.9214 58.7212 95.8843C58.7825 95.8939 58.8469 95.9068 58.9081 95.9165C58.9597 95.9262 59.0112 95.9358 59.0628 95.9423C59.1562 96.8867 59.2529 97.8279 59.4978 98.7466C60.9671 104.587 68.8549 107.846 73.4335 102.972C76.1723 100.007 74.993 96.155 74.1521 92.6223C79.9551 96.0873 86.1094 101.899 88.0427 105.503C91.3389 111.65 85.8291 118.058 79.649 131.795C73.469 145.53 83.2288 158.123 78.4278 184.658C78.4278 184.658 73.1822 189.003 49.6122 186.228L67.2277 107.234C62.9616 106.341 60.3452 102.673 58.486 98.882C56.9201 103.443 51.3458 106.289 46.3804 105.677L37.7193 184.287C15.4415 179.642 12.8477 174.198 12.8477 174.198C16.537 147.483 30.2343 137.858 28.0207 122.96L28.0175 122.954Z" fill="#CBADBE"/>
</g>
<path d="M73.4335 102.969C68.8548 107.846 60.967 104.584 59.4977 98.7433C59.2529 97.8247 59.1562 96.8835 59.0627 95.939C64.0925 96.6997 69.1319 95.2911 72.6086 91.71C73.108 92.0001 73.6268 92.3031 74.1552 92.619C74.9962 96.1485 76.1787 100.004 73.4367 102.969H73.4335Z" fill="white"/>
<path d="M24.3121 124.482C20.4552 106.924 22.2918 97.006 27.3731 91.9454C30.6822 88.6511 35.3318 87.6809 46.8799 87.1523L36.756 181.834C36.379 185.393 32.8991 187.768 29.4546 186.814C13.2633 182.318 9.13257 177.138 9.13257 177.138C13.0088 149.234 27.6728 139.796 24.3088 124.485L24.3121 124.482Z" fill="#0CB5CC"/>
<path d="M24.312 124.482C24.138 123.685 23.9737 122.905 23.8222 122.138C31.1171 118.841 38.0802 114.944 44.4375 110.006L42.7265 125.993C36.6979 130.496 30.0313 134.032 23.2068 137.439C24.6922 133.207 25.327 129.113 24.3088 124.478L24.312 124.482Z" fill="#0CB5CC"/>
<path d="M89.0062 105.132C92.2638 111.524 87.0375 119.376 80.7543 133.755C74.4711 148.131 85.0107 160.718 80.0196 188.445C80.0196 188.445 74.4615 192.097 57.5968 191.314C53.6722 191.134 50.8561 187.453 51.7099 183.614L71.7387 91.0009C77.7319 94.5595 86.8731 100.942 89.0094 105.135L89.0062 105.132Z" fill="#0CB5CC"/>
<path d="M55.673 105.142C55.5345 106.006 56.1241 106.815 56.9844 106.953C57.848 107.092 58.6567 106.502 58.7953 105.641C58.9338 104.777 58.3442 103.968 57.4839 103.83C56.6203 103.691 55.8116 104.281 55.673 105.142Z" fill="white"/>
<path d="M53.7205 129.039C54.5942 129.039 55.3026 128.331 55.3026 127.457C55.3026 126.583 54.5942 125.874 53.7205 125.874C52.8467 125.874 52.1384 126.583 52.1384 127.457C52.1384 128.331 52.8467 129.039 53.7205 129.039Z" fill="white"/>
<path d="M48.6391 149.269C48.5005 150.133 49.0902 150.942 49.9505 151.08C50.814 151.219 51.6228 150.629 51.7613 149.769C51.8999 148.905 51.3102 148.096 50.4499 147.957C49.5864 147.818 48.7776 148.408 48.6391 149.269Z" fill="white"/>
<path d="M48.2253 171.945C48.4237 171.093 47.8946 170.242 47.0437 170.044C46.1927 169.846 45.3421 170.375 45.1438 171.226C44.9454 172.077 45.4745 172.928 46.3255 173.127C47.1764 173.325 48.027 172.796 48.2253 171.945Z" fill="white"/>
<path d="M63.5396 167.718L73.8696 171.747C74.3239 171.924 74.8357 171.699 75.0128 171.245L75.309 170.485C75.4861 170.03 75.2614 169.518 74.8071 169.341L64.4771 165.312C64.0228 165.135 63.5109 165.36 63.3338 165.814L63.0377 166.574C62.8606 167.029 63.0853 167.541 63.5396 167.718Z" fill="#0CB5CC"/>
<path d="M31.28 160.515L20.4574 161.117C19.9812 161.143 19.6167 161.551 19.6431 162.027L19.6873 162.822C19.7137 163.299 20.1212 163.663 20.5974 163.637L31.42 163.035C31.8961 163.009 32.2607 162.601 32.2343 162.125L32.1901 161.33C32.1636 160.854 31.7562 160.489 31.28 160.515Z" fill="#0CB5CC"/>
<path d="M27.0154 112.72L37.1233 108.268C41.035 104.832 45.1367 101.445 50.1923 100.052C55.2478 98.6596 61.5052 99.6008 66.1934 103.939C66.4802 104.204 66.7831 104.529 66.8217 104.906C66.8668 105.361 66.4737 105.651 66.0677 105.632C65.665 105.612 65.259 105.371 64.8659 105.151C61.6889 103.385 58.1896 102.753 55.106 103.391C57.2423 103.749 59.3947 104.11 61.5052 104.968C63.6157 105.825 65.7069 107.227 67.1729 109.258C67.3727 109.535 67.5725 109.87 67.5306 110.173C67.4533 110.734 66.7218 110.647 66.187 110.457C62.1754 109.045 58.1091 108.133 54.0975 107.753C57.4131 108.61 60.9252 109.577 63.6801 112.22C64.1602 112.681 64.6597 113.439 64.3632 113.916C64.2086 114.164 63.8928 114.209 63.5964 114.206C62.2688 114.186 60.9123 113.497 59.5751 112.965C57.2939 112.056 54.9514 111.579 52.6862 111.563C55.164 112.175 57.6322 113.232 59.965 114.679C60.3903 114.944 60.8447 115.26 61.0702 115.74C61.5052 116.672 60.7448 117.568 59.8877 117.577C59.0306 117.587 58.1542 117.052 57.2906 116.684C55.715 116.014 54.0524 115.879 52.6089 116.307C51.4392 116.655 50.4372 117.352 49.3577 117.893C45.1077 120.03 41.0962 120.34 36.2146 117.577L28.6039 121.555L27.0122 112.713L27.0154 112.72Z" fill="#FCDBBF"/>
<g style="mix-blend-mode:multiply" opacity="0.89">
<path d="M37.729 107.743C37.526 107.92 37.3262 108.094 37.1232 108.272L27.0154 112.723L28.6071 121.565L36.2178 117.587C41.0961 120.349 45.1109 120.04 49.3609 117.903C49.8603 117.651 50.3469 117.368 50.8399 117.1C47.7885 116.649 44.7275 116.269 41.8276 115.556C39.4399 114.992 38.3831 111.243 37.729 107.746V107.743Z" fill="#FCDBBF"/>
</g>
<path d="M13.3825 137.407L39.949 121.684L35.7441 108.481L5.18217 123.26C1.01272 125.413 -1.5811 130.993 1.08039 135.28C3.71609 139.528 9.61905 139.638 13.3857 137.41L13.3825 137.407Z" fill="#0CB5CC"/>
<path d="M101.695 25.3482C98.8658 34.0061 87.4337 38.0256 76.1562 34.3252C64.8787 30.6248 58.0317 20.6067 60.8607 11.9488C63.6897 3.29099 75.863 -2.57224 87.1405 1.12814C98.4179 4.82852 104.524 16.6904 101.695 25.3482Z" fill="#D2D3D4"/>
<path d="M34.6326 53.3009C34.6326 53.3009 36.1856 36.7137 39.3627 25.3063C42.5397 13.899 58.4248 -0.715577 85.6197 7.26216C113.272 15.3753 109.032 41.8291 108.558 45.0299C107.376 53.0334 98.8981 73.1953 97.4836 72.6215C96.0497 72.0381 34.6326 53.3009 34.6326 53.3009Z" fill="#D2D3D4"/>
<path d="M41.1638 56.9142C39.6977 61.7621 37.6742 64.9468 34.0751 63.8541C30.4759 62.7613 26.6609 57.8103 28.127 52.9592C29.5931 48.1113 33.7013 45.0653 37.3004 46.158C40.8995 47.2507 42.6298 52.0663 41.1638 56.9142Z" fill="#FCDBBF"/>
<g opacity="0.89" style="mix-blend-mode:multiply">
<path d="M36.4658 49.3974C35.6248 48.4562 33.9622 48.4143 32.7024 49.0493C31.7164 49.8841 30.9882 51.2025 30.7175 52.2887C32.0193 51.2637 34.2425 49.5779 35.1641 51.5506C35.4347 52.0631 35.6087 52.5788 35.7022 53.0946C34.9321 52.5434 33.6883 52.6691 32.8635 53.0043C31.4844 53.8037 31.4071 55.454 31.8678 56.8143C32.3286 55.9214 32.6347 54.9512 33.553 54.6708C34.0138 54.5289 34.5487 54.9899 34.5487 55.367C34.4713 55.8924 33.553 56.1728 33.4757 56.6982C33.4757 57.0721 33.3983 57.5975 33.8591 57.8329C34.1266 58.0424 34.4423 58.2164 34.7774 58.3163C34.3489 59.3865 33.8784 60.4309 33.553 61.4333C37.9996 59.1931 39.6042 53.0656 36.4594 49.4006L36.4658 49.3974Z" fill="#FCDBBF"/>
</g>
<path d="M91.6999 71.9575C90.2854 76.8215 90.2467 80.596 93.8587 81.6501C97.4707 82.7041 103.364 80.6412 104.779 75.7772C106.193 70.9132 104.411 66.1136 100.799 65.0596C97.1872 64.0056 93.1144 67.0935 91.6999 71.9575Z" fill="#FCDBBF"/>
<g opacity="0.89" style="mix-blend-mode:multiply">
<path d="M99.7327 68.2313C100.947 67.9026 102.365 68.7761 103.077 70.0009C103.451 71.2419 103.341 72.744 102.974 73.798C102.442 72.225 101.498 69.598 99.6521 70.7455C99.1462 71.026 98.7209 71.3644 98.36 71.7448C99.3073 71.7061 100.277 72.4894 100.786 73.2243C101.508 74.649 100.67 76.0737 99.5426 76.9601C99.6425 75.9609 99.9163 74.981 99.2977 74.2396C98.9884 73.8689 98.2892 73.9624 98.0829 74.2783C97.8606 74.7586 98.4793 75.4999 98.2569 75.9802C98.0507 76.2961 97.8316 76.7764 97.3161 76.7216C96.9777 76.7506 96.6201 76.7248 96.2818 76.6249C96.0562 77.7563 95.8822 78.8909 95.6083 79.9062C93.1047 75.5966 95.096 69.5851 99.7294 68.2346L99.7327 68.2313Z" fill="#FCDBBF"/>
</g>
<path d="M99.5361 64.3021C105.433 45.9904 101.991 26.3733 79.6362 19.7203C57.8449 13.235 44.3312 27.8076 38.2961 46.0742C29.8896 71.5256 37.2006 82.3947 50.2116 87.3006C51.7969 89.3538 54.5647 91.1847 57.9705 92.2C61.7308 93.3185 65.3814 93.1767 67.8722 92.0453C82.4233 94.6465 90.5399 92.2355 99.5329 64.3021H99.5361Z" fill="#FCDBBF"/>
<g opacity="0.89" style="mix-blend-mode:multiply">
<path d="M79.6361 19.7203C60.3065 13.9667 47.4888 24.7842 40.6289 40.0531C47.4212 36.2399 55.9437 35.824 63.6736 35.1085C71.642 34.322 79.6844 34.7926 87.5303 35.434C85.9386 41.5583 89.3895 47.9792 92.6568 53.0785C94.8929 56.8111 98.4598 59.7089 99.6456 63.9443C105.381 45.7358 101.843 26.3314 79.6361 19.7203Z" fill="#FCDBBF"/>
</g>
<g style="mix-blend-mode:multiply" opacity="0.89">
<path d="M39.9393 48.5852C41.8082 48.8398 43.2517 49.8681 44.9562 50.4741C45.0851 50.5192 45.1914 50.4386 45.1205 50.3451C44.1893 49.1396 41.6954 48.4047 40.0263 48.1919C39.6751 48.1468 39.5785 48.5336 39.9393 48.582V48.5852Z" fill="#FCDBBF"/>
</g>
<g style="mix-blend-mode:multiply" opacity="0.89">
<path d="M38.8406 51.0285C39.8943 51.1026 40.9995 51.3314 42.037 51.5667C42.9875 51.7827 43.9638 52.0857 44.9273 52.076C45.1238 52.076 45.1593 51.8955 44.9885 51.8085C44.0476 51.3443 42.9199 51.1252 41.8791 50.9092C40.8094 50.6868 39.8266 50.545 38.7794 50.6159C38.4379 50.6384 38.4733 50.9994 38.8406 51.0252V51.0285Z" fill="#FCDBBF"/>
</g>
<g style="mix-blend-mode:multiply" opacity="0.89">
<path d="M39.9845 53.4653C40.7578 53.417 41.5279 53.4492 42.3206 53.5234C43.0456 53.591 43.7415 53.6974 44.4311 53.5814C44.6824 53.5395 44.6147 53.2848 44.3795 53.2204C42.9489 52.8207 41.2154 52.8142 39.8073 52.9238C39.4045 52.956 39.5721 53.4911 39.9845 53.4653Z" fill="#FCDBBF"/>
</g>
<g style="mix-blend-mode:multiply" opacity="0.89">
<path d="M94.6675 64.805C93.1337 64.1571 91.5742 64.286 90.0082 63.9798C89.8922 63.9572 89.8439 63.8476 89.9406 63.809C91.1908 63.3126 93.414 63.8799 94.777 64.4665C95.0638 64.5922 94.9639 64.9275 94.6675 64.8017V64.805Z" fill="#FCDBBF"/>
</g>
<g style="mix-blend-mode:multiply" opacity="0.89">
<path d="M94.4 67.1483C93.5655 66.7293 92.6246 66.407 91.7321 66.1201C90.9137 65.8558 90.0373 65.6463 89.3091 65.2079C89.1608 65.1176 89.2124 64.9662 89.3832 64.979C90.3079 65.05 91.2584 65.3916 92.1478 65.6946C93.0564 66.0073 93.8684 66.3425 94.632 66.8647C94.8801 67.0355 94.69 67.2934 94.4 67.1483Z" fill="#FCDBBF"/>
</g>
<g style="mix-blend-mode:multiply" opacity="0.89">
<path d="M92.4345 68.4795C91.8674 68.096 91.2713 67.7736 90.6365 67.4739C90.0565 67.1999 89.4798 66.9646 89.0093 66.5713C88.8386 66.4263 89.0029 66.2651 89.2123 66.3199C90.4786 66.6584 91.7965 67.4352 92.8147 68.1508C93.1079 68.3571 92.7374 68.6858 92.4377 68.4828L92.4345 68.4795Z" fill="#FCDBBF"/>
</g>
<g opacity="0.89" style="mix-blend-mode:multiply">
<path d="M47.0603 58.2745C47.9432 60.5276 49.8185 62.2037 52.1094 61.9974C53.7559 61.8169 54.9964 60.6694 56.0017 59.3027C53.3821 61.3721 49.4866 60.2891 47.0603 58.2745Z" fill="#FCDBBF"/>
</g>
<g opacity="0.89" style="mix-blend-mode:multiply">
<path d="M78.112 65.4271C77.6319 66.7519 78.3086 68.6278 79.7586 69.9526C81.6532 71.6287 84.3082 71.993 86.103 71.3934C83.1225 70.5103 78.5599 68.3829 78.112 65.4271Z" fill="#FCDBBF"/>
</g>
<g opacity="0.89" style="mix-blend-mode:multiply">
<path d="M56.5945 82.2109C57.1229 83.7291 58.1894 84.8798 59.5685 85.5922C62.0141 86.7848 64.5822 85.9242 66.8151 84.9636C63.3062 85.228 59.2141 84.9088 56.5945 82.2077V82.2109Z" fill="#FCDBBF"/>
</g>
<g opacity="0.89" style="mix-blend-mode:multiply">
<path d="M71.1587 56.8498C69.0385 60.1891 71.381 63.7219 72.7375 66.7744C72.3573 62.6163 72.0963 58.0746 74.2777 54.4387C73.0694 55.0415 71.9449 55.7248 71.1619 56.8498H71.1587Z" fill="#FCDBBF"/>
</g>
<path d="M48.5876 44.1596C51.9 40.3593 55.9856 41.2779 59.3592 43.647C60.0874 44.1596 61.1604 43.6374 61.576 42.7477C62.0368 41.755 61.7081 40.6945 60.9767 40.182C58.7986 38.6541 56.3207 37.6355 53.685 37.6903C50.8979 37.7516 48.3298 39.3149 46.2838 41.6615C45.6297 42.4093 45.6973 43.7244 46.2934 44.3723C46.9475 45.0814 47.9367 44.9106 48.5908 44.1628L48.5876 44.1596Z" fill="#D2D3D4"/>
<path d="M90.6656 56.4565C90.0276 51.9374 86.3382 50.4418 82.4588 50.3773C81.621 50.3644 81.0475 49.4168 81.1796 48.5465C81.331 47.5795 82.1398 46.9832 82.9808 46.9961C85.4844 47.038 87.9622 47.6085 90.0082 49.0461C92.1703 50.5643 93.3818 53.0656 93.7749 55.857C93.9006 56.7466 93.1692 57.6717 92.3636 57.8264C91.4808 57.9973 90.7912 57.3494 90.6656 56.4565Z" fill="#D2D3D4"/>
<path d="M54.7122 38.2737C54.6705 38.2737 54.6255 38.2737 54.5774 38.2866C54.6223 38.2802 54.6673 38.2801 54.7122 38.2737Z" fill="#E6E7E7"/>
<path d="M60.9733 40.1787C58.7952 38.6509 56.3174 37.6323 53.6816 37.6871C50.8945 37.7483 48.3265 39.3117 46.2804 41.6582C46.0162 41.958 45.8744 42.3513 45.8325 42.7574C47.3566 40.817 49.7377 39.6018 52.2252 39.5824C51.7 39.4535 51.1716 39.3278 50.6045 39.3761C52.0867 38.6154 53.8428 39.0409 55.4184 38.6767C55.1123 38.6025 55.0027 38.2931 54.7192 38.2738C54.6741 38.2802 54.629 38.2802 54.5838 38.2866C54.6354 38.2738 54.6773 38.2705 54.7192 38.2738C57.1519 38.0094 59.2173 39.2472 60.8187 40.9169C61.3858 41.4326 61.5952 42.0966 61.5533 42.7896C61.5598 42.7735 61.5694 42.7606 61.5759 42.7445C62.0367 41.7517 61.708 40.6912 60.9766 40.1787H60.9733Z" fill="#E6E7E7"/>
<path d="M93.7749 55.8602C93.3818 53.0688 92.1703 50.5675 90.0082 49.0493C87.9622 47.6117 85.4843 47.0412 82.9807 46.9993C82.2171 46.9864 81.4792 47.4795 81.2375 48.295C82.1333 47.6053 83.5672 47.5053 84.6401 47.6278C84.247 47.7181 83.986 48.0275 83.5929 48.121C86.6089 47.1733 88.8579 49.3974 91.0586 51.0478C91.1005 50.8705 90.7912 50.6094 90.8363 50.4353C91.8094 51.7891 92.1284 53.5458 92.7084 54.9931C92.6181 54.5967 92.5279 54.2034 92.6117 53.8521C92.8566 54.9254 93.3624 55.973 93.4881 57.0206C93.7104 56.6789 93.8297 56.2696 93.7717 55.8666L93.7749 55.8602Z" fill="#E6E7E7"/>
<g style="mix-blend-mode:multiply" opacity="0.75">
<path d="M48.0591 54.3033C47.9431 57.1689 49.8151 59.3188 52.2317 59.1093C54.6548 58.9063 56.7105 56.4211 56.8233 53.5652C56.9393 50.6997 55.0737 48.5497 52.6506 48.756C50.2308 48.9591 48.1751 51.4443 48.0591 54.3033Z" fill="#FEDDC0"/>
</g>
<path d="M48.61 54.3001C48.5004 56.9239 50.2017 58.8869 52.4121 58.6935C54.6225 58.5033 56.5075 56.2212 56.617 53.6071C56.7266 50.9865 55.0285 49.0171 52.8149 49.2105C50.6045 49.4039 48.7195 51.6828 48.61 54.3034V54.3001Z" fill="white"/>
<path d="M52.1221 58.5646C50.6334 58.3422 49.6797 56.6918 49.9955 54.89C50.3112 53.0817 51.7773 51.7988 53.2659 52.0245C54.7513 52.2436 55.7019 53.8908 55.3893 55.7023C55.0736 57.5009 53.6139 58.7838 52.1221 58.5646Z" fill="#893F29"/>
<path d="M52.8019 58.0456C51.9223 57.9135 51.3616 56.94 51.5421 55.8699C51.7322 54.7933 52.6021 54.0423 53.4786 54.1712C54.3614 54.3066 54.9253 55.28 54.7352 56.3534C54.5483 57.4203 53.6816 58.181 52.7987 58.0456H52.8019Z" fill="#4B1C0D"/>
<path d="M53.9523 55.7635C53.5624 55.7571 53.3078 55.3348 53.3852 54.8223C53.4657 54.313 53.8459 53.9004 54.2455 53.9133C54.6321 53.9198 54.8931 54.3485 54.8126 54.8578C54.732 55.367 54.3454 55.7764 53.9523 55.7667V55.7635Z" fill="white"/>
<g opacity="0.48" style="mix-blend-mode:screen">
<path d="M53.0532 55.9053C51.9383 56.2728 51.1844 56.8594 50.8235 57.8909C51.1779 58.2455 51.6194 58.4872 52.122 58.5613C52.383 58.5968 52.6408 58.5871 52.8953 58.5388C52.6408 57.762 52.8438 56.8336 53.0564 55.9021L53.0532 55.9053Z" fill="#893F29"/>
</g>
<g style="mix-blend-mode:multiply" opacity="0.75">
<path d="M87.3112 66.0427C85.8483 68.4473 83.0805 69.1855 81.1247 67.6931C79.1624 66.2039 78.7564 63.0483 80.2128 60.6533C81.6724 58.2487 84.4402 57.5074 86.3993 58.9998C88.3584 60.4889 88.7643 63.6414 87.3112 66.0427Z" fill="#FEDDC0"/>
</g>
<path d="M86.8408 65.7398C85.5101 67.9445 82.9839 68.6182 81.1989 67.2515C79.4106 65.888 79.0401 62.9935 80.3708 60.7952C81.7015 58.5904 84.2277 57.9103 86.016 59.277C87.801 60.6405 88.1748 63.535 86.8441 65.7365L86.8408 65.7398Z" fill="white"/>
<path d="M82.9968 67.7865C81.4985 67.49 80.5802 65.8203 80.9572 64.0668C81.3342 62.3069 82.8583 61.1239 84.3598 61.4269C85.8581 61.7202 86.7699 63.3899 86.3962 65.1531C86.0192 66.9034 84.5016 68.0831 82.9968 67.7898V67.7865Z" fill="#893F29"/>
<path d="M83.2481 67.2031C82.3587 67.0258 81.8239 66.0395 82.0398 64.9984C82.2653 63.9508 83.1675 63.261 84.0568 63.4318C84.9461 63.6091 85.4907 64.5987 85.2651 65.6398C85.0428 66.6777 84.1406 67.3772 83.2513 67.1999L83.2481 67.2031Z" fill="#4B1C0D"/>
<path d="M84.9141 65.1305C84.5178 65.1015 84.2729 64.6728 84.3663 64.1764C84.463 63.68 84.8625 63.2964 85.2653 63.3287C85.6584 63.3577 85.9065 63.7896 85.8131 64.286C85.7132 64.7824 85.3136 65.1627 84.9141 65.1337V65.1305Z" fill="white"/>
<g opacity="0.48" style="mix-blend-mode:screen">
<path d="M84.0248 65.224C82.8841 65.527 82.1012 66.0621 81.7048 67.0548C82.0528 67.4223 82.491 67.6834 83.0001 67.7833C83.2644 67.8349 83.5253 67.8381 83.7831 67.8027C83.5479 67.0258 83.7831 66.1265 84.0248 65.2208V65.224Z" fill="#893F29"/>
</g>
<path d="M55.251 76.2188C56.092 78.2752 57.9962 80.5606 62.2108 81.6823C66.2095 82.746 68.8516 81.9724 70.54 80.8281C70.4015 80.7217 70.2629 80.6218 70.1244 80.5251C65.7229 77.5178 60.4483 76.4863 55.251 76.2188Z" fill="#EF5F81"/>
<path d="M54.6709 73.9592C54.7482 74.62 54.9158 75.4 55.2509 76.2188C60.4482 76.4863 65.7261 77.5178 70.1243 80.5251C70.2628 80.6218 70.4014 80.7218 70.5399 80.8281C71.1844 80.393 71.687 79.903 72.0737 79.4421C72.7632 78.6201 72.4313 77.3598 71.4292 76.9666C66.3512 74.9842 61.3246 73.4693 56.3561 72.4249C55.4152 72.2283 54.5581 73.0083 54.6709 73.9592Z" fill="#C32C49"/>
<path d="M62.9034 61.8008C62.0753 61.933 61.2537 62.2295 60.6415 62.7968C60.0293 63.3641 59.6619 64.2377 59.8521 65.0499C60.0422 65.8687 60.7253 66.4779 61.4116 66.9614C63.4963 68.4312 65.9902 69.3144 68.5357 69.511C70.0211 69.6271 71.745 69.395 72.5698 68.1637C73.2529 67.1483 73.0757 65.7591 72.5344 64.6567L62.9066 61.7976L62.9034 61.8008Z" fill="#FCDBBF"/>
<g opacity="0.89" style="mix-blend-mode:multiply">
<path d="M73.005 66.3812C72.5539 67.6415 71.0041 68.4731 69.7668 68.4505C68.3201 68.2861 67.434 66.581 66.2096 67.0291C64.6243 67.5287 62.9359 67.5867 61.5632 67.0677C63.619 68.4731 66.0517 69.3208 68.5327 69.5142C70.0181 69.6303 71.742 69.3982 72.5668 68.1669C72.9213 67.6415 73.0405 67.0162 73.0018 66.3812H73.005Z" fill="#FCDBBF"/>
</g>
<path d="M89.8341 61.4656C89.4958 61.6719 88.9835 61.5913 88.5872 61.5559C88.5388 61.5526 88.4905 61.543 88.4389 61.5365C88.4099 61.3302 88.368 61.1272 88.31 60.9273C88.3229 60.9273 88.3358 60.9273 88.3487 60.9273C88.8482 60.8886 89.2445 60.6598 89.5957 60.3665C89.6698 60.3052 89.5602 60.186 89.4765 60.2375C89.1381 60.4438 88.6258 60.3632 88.2295 60.3278C88.1779 60.3246 88.1264 60.3149 88.0748 60.3084C87.6398 59.3833 86.8472 58.6033 85.6743 58.1972C83.6734 57.5009 80.9571 58.9611 80.0646 60.4793C79.9679 60.6469 80.2579 60.7855 80.361 60.6275C81.376 59.0513 83.6895 58.2294 85.597 59.2447C87.3209 60.1634 87.3176 61.6139 87.7397 63.1514C87.8203 63.448 88.3197 63.4125 88.3777 63.1417C88.4486 62.8226 88.4808 62.4939 88.4808 62.1683C88.5614 62.1683 88.6387 62.1683 88.7031 62.1619C89.2026 62.1232 89.5989 61.8943 89.9501 61.601C90.0242 61.5397 89.9147 61.4205 89.8309 61.4721L89.8341 61.4656Z" fill="#927F71"/>
<path d="M48.1364 49.4394C48.3459 49.7585 48.8227 49.9003 49.1836 50.0357C49.2287 50.0518 49.2738 50.0647 49.3222 50.0808C49.4317 49.91 49.5542 49.7488 49.6863 49.5973C49.6766 49.5909 49.6637 49.5844 49.6541 49.5812C49.2352 49.3427 48.9871 48.9752 48.8002 48.5723C48.7615 48.4885 48.9065 48.4273 48.9581 48.5078C49.1675 48.8269 49.6444 48.9688 50.0053 49.1042C50.0504 49.1203 50.0987 49.1364 50.147 49.1493C50.9075 48.5143 51.9192 48.1533 53.1082 48.279C55.1381 48.4917 56.8974 50.9028 57.0456 52.6111C57.0618 52.7981 56.7492 52.8013 56.7267 52.6176C56.4947 50.8061 54.8224 49.1267 52.7441 49.2331C50.8624 49.3298 50.2695 50.6127 49.2674 51.7924C49.0741 52.0213 48.6552 51.7827 48.7164 51.5216C48.7873 51.2122 48.8936 50.9092 49.029 50.6223C48.9581 50.5901 48.8936 50.5547 48.8389 50.5224C48.42 50.2839 48.1719 49.9164 47.985 49.5135C47.9463 49.4297 48.0913 49.3685 48.1429 49.449L48.1364 49.4394Z" fill="#927F71"/>
<g style="mix-blend-mode:multiply">
<path d="M62.2622 36.6976C66.3092 37.3938 70.266 38.4027 74.1842 39.6179C78.0185 40.8105 81.608 42.4963 85.3521 43.9178C85.4874 43.9694 85.6421 43.776 85.5003 43.6857C82.1783 41.5938 78.2505 40.3077 74.5128 39.1602C70.527 37.9385 66.4156 37.1134 62.3041 36.4429C62.1398 36.4171 62.0979 36.6653 62.2622 36.6943V36.6976Z" fill="#FCDBBF"/>
</g>
<g style="mix-blend-mode:multiply">
<path d="M68.9194 34.2253C73.0469 34.9473 77.0005 35.7918 80.9315 37.2713C81.1023 37.3358 81.215 37.0972 81.0507 37.0134C77.3678 35.1149 73.0115 34.583 68.9741 33.9029C68.7647 33.8675 68.7099 34.1898 68.9226 34.2253H68.9194Z" fill="#FCDBBF"/>
</g>
<g style="mix-blend-mode:multiply">
<path d="M70.4209 43.4762C70.2823 44.4915 70.1695 45.581 70.2501 46.5996C70.263 46.7446 70.4563 46.7511 70.4982 46.6221C70.8043 45.6519 70.7044 44.5721 70.8365 43.5696C70.872 43.3021 70.4563 43.2054 70.4209 43.4762Z" fill="#FCDBBF"/>
</g>
<g style="mix-blend-mode:multiply">
<path d="M72.338 43.3118C72.2639 44.4045 71.6581 45.3844 71.6194 46.4675C71.6162 46.5609 71.758 46.59 71.7999 46.5094C72.2864 45.5263 72.6505 44.3884 72.7279 43.2957C72.744 43.0475 72.3541 43.0669 72.338 43.3151V43.3118Z" fill="#FCDBBF"/>
</g>
<g style="mix-blend-mode:multiply">
<path d="M74.2938 44.8332C73.8942 45.7615 73.2885 46.7446 73.1499 47.7568C73.1306 47.8954 73.3078 47.9631 73.3819 47.8438C73.9135 46.9896 74.2454 45.942 74.6224 45.0105C74.7126 44.7913 74.3872 44.614 74.2905 44.8364L74.2938 44.8332Z" fill="#FCDBBF"/>
</g>
<g opacity="0.89" style="mix-blend-mode:multiply">
<path d="M55.8407 68.3313C54.2779 68.6278 52.8989 69.453 51.3136 69.7592C49.7057 70.0687 47.7853 70.2556 46.1743 69.7141C45.968 69.6432 45.8488 69.9494 46.0486 70.0364C47.0636 70.4651 48.0657 70.723 49.0935 70.8036C48.8712 71.4611 48.8454 72.2509 48.7939 72.8923C48.7069 73.9721 48.7069 75.0648 48.8196 76.1543C49.0452 78.3429 49.8121 80.4542 50.9978 82.414C51.0816 82.5494 51.32 82.4527 51.262 82.3076C50.479 80.3479 49.9957 78.3236 49.7959 76.2768C49.7025 75.3066 49.6993 74.3364 49.7669 73.3726C49.8314 72.4958 50.044 71.6771 50.1762 70.8229C50.5145 70.81 50.8592 70.7778 51.2072 70.7262C52.8344 70.4877 55.1254 69.9945 56.1339 68.7439C56.295 68.544 56.1178 68.2701 55.8342 68.3249L55.8407 68.3313Z" fill="#FCDBBF"/>
</g>
<g opacity="0.89" style="mix-blend-mode:multiply">
<path d="M74.2487 72.0832C75.3184 72.9954 76.0337 74.3395 77.1132 75.2743C78.2087 76.2187 79.5942 77.1761 81.0377 77.3082C81.2246 77.3243 81.1892 77.666 81.0023 77.666C80.0582 77.666 79.1914 77.5048 78.3762 77.1664C78.2796 77.882 77.9799 78.6427 77.7608 79.2744C77.3903 80.3381 76.9488 81.376 76.4236 82.3688C75.3668 84.3576 73.9329 86.0595 72.2381 87.4456C72.1188 87.5423 71.9803 87.3521 72.0802 87.2393C73.4657 85.6921 74.6514 83.9612 75.631 82.0916C76.095 81.2052 76.4881 80.2866 76.8264 79.3389C77.1325 78.4783 77.3 77.6144 77.5449 76.7474C77.2936 76.5959 77.0423 76.4282 76.8006 76.2381C75.66 75.3549 74.1166 73.9592 73.8556 72.3604C73.8137 72.1058 74.0586 71.9188 74.2519 72.0832H74.2487Z" fill="#FCDBBF"/>
</g>
<path d="M107.791 44.859C108.268 41.6582 112.524 15.2109 85.1587 7.16221C58.2442 -0.754283 42.4815 13.8893 39.3109 25.2966C37.8223 30.657 36.6849 37.1585 35.8987 42.5479C51.1007 30.8472 71.6064 28.0397 90.008 32.8908C88.0135 42.7509 94.374 51.3669 98.1053 60.7951C98.5822 61.9265 98.5854 63.1739 98.479 64.4504C99.2814 64.402 100.097 64.8082 100.909 65.2917C103.754 58.8386 107.076 49.6585 107.791 44.859Z" fill="#D2D3D4"/>
<path d="M42.4978 36.0915C55.3574 29.9285 71.5099 26.7245 85.1525 31.7981C86.1513 31.985 87.1437 32.1945 88.1329 32.4234C74.281 24.7035 54.845 26.2991 42.4978 36.0883V36.0915Z" fill="#E6E7E7"/>
<path d="M107.791 44.859C108.268 41.6582 112.524 15.2109 85.1589 7.16221C58.2444 -0.754283 42.4817 13.8893 39.3111 25.2966C39.3111 25.3031 39.3111 25.3095 39.3079 25.3128C39.5173 25.0162 39.7332 24.7229 39.9523 24.4328C52.0353 8.02928 77.0584 4.65446 93.6202 16.0167C92.5086 15.0046 92.0671 13.567 91.6257 12.1294C107.485 24.3683 107.05 47.7439 98.5759 64.4504C99.346 64.4375 100.132 64.8275 100.912 65.2917C103.757 58.8386 107.079 49.6585 107.794 44.859H107.791Z" fill="#E6E7E7"/>
<path d="M110.623 275.372L107.594 308.347L110.407 309.552L117.851 275.63L110.623 275.372Z" fill="#725F5C"/>
<path d="M117.851 275.63L110.407 309.552L110.42 309.559L112.038 307.538L121.93 275.775L117.851 275.63Z" fill="#492F41"/>
<path d="M213.1 275.372L216.129 308.347L213.316 309.552L205.873 275.63L213.1 275.372Z" fill="#725F5C"/>
<path d="M205.873 275.63L213.316 309.552L213.303 309.559L211.686 307.538L201.794 275.775L205.873 275.63Z" fill="#492F41"/>
<path d="M220.862 158.617H108.378C96.6646 158.617 87.1694 168.115 87.1694 179.833V249.953C87.1694 261.67 96.6646 271.169 108.378 271.169H220.862C232.575 271.169 242.07 261.67 242.07 249.953V179.833C242.07 168.115 232.575 158.617 220.862 158.617Z" fill="#8B504A"/>
<path d="M103.731 275.556L100.374 315.283L103.493 316.737L111.748 275.868L103.731 275.556Z" fill="#725F5C"/>
<path d="M111.748 275.868L103.493 316.737L103.509 316.743L105.301 314.307L116.269 276.042L111.748 275.868Z" fill="#492F41"/>
<path d="M227.912 275.556L231.27 315.283L228.151 316.737L219.896 275.868L227.912 275.556Z" fill="#725F5C"/>
<path d="M219.896 275.868L228.151 316.737L228.135 316.743L226.343 314.307L215.375 276.042L219.896 275.868Z" fill="#492F41"/>
<path d="M222.374 250.453H105.301V282.625H222.374V250.453Z" fill="#72433E"/>
<path d="M222.374 250.453H105.301V282.625H222.374V250.453Z" fill="#5F3732"/>
<path d="M252.745 215.863L247.029 203.421C246.823 202.915 246.594 202.418 246.346 201.935L246.285 201.8H246.282C244.178 197.783 240.675 194.673 236.293 193.458C227.616 191.053 218.655 196.952 216.38 206.564L207.026 246.082C206.063 250.146 206.45 254.25 207.864 257.815L211.789 271.333C211.95 272.033 212.153 272.716 212.385 273.383L212.411 273.467C214.318 278.873 218.471 283.218 223.936 284.733C232.977 287.24 242.315 281.093 244.687 271.072L254.437 229.888C255.607 224.946 254.869 219.953 252.742 215.86L252.745 215.863Z" fill="#7A4941"/>
<path d="M223.933 284.9C214.892 282.392 209.433 272.145 211.805 262.127L221.555 220.943C223.926 210.925 233.264 204.778 242.305 207.282C251.347 209.79 256.805 220.037 254.434 230.055L244.683 271.24C242.312 281.258 232.974 287.405 223.933 284.9Z" fill="#A1665B"/>
<path d="M70.9782 215.863L76.6942 203.421C76.9004 202.915 77.1292 202.418 77.3773 201.935L77.4385 201.8H77.4418C79.5426 197.783 83.0483 194.673 87.4304 193.458C96.1076 191.053 105.068 196.952 107.343 206.564L116.697 246.082C117.66 250.146 117.274 254.25 115.859 257.815L111.935 271.333C111.774 272.033 111.571 272.716 111.339 273.383L111.313 273.467C109.405 278.873 105.252 283.218 99.7873 284.733C90.746 287.24 81.4082 281.093 79.0367 271.072L69.2865 229.888C68.1169 224.946 68.8548 219.953 70.9814 215.86L70.9782 215.863Z" fill="#7A4941"/>
<path d="M100.132 284.987C109.173 282.479 114.632 272.233 112.26 262.214L102.51 221.03C100.139 211.012 90.8008 204.865 81.7595 207.37C72.7182 209.877 67.2599 220.124 69.6314 230.142L79.3815 271.327C81.753 281.345 91.0908 287.492 100.132 284.987Z" fill="#A1665B"/>
<path d="M188.873 270.514C188.873 270.514 194.673 271.962 201.185 270.514C207.697 269.067 213.062 256.777 213.062 250.991C213.062 245.205 216.545 242.639 208.499 238.662C200.453 234.684 166.653 234.423 166.653 234.423H166.27C166.27 234.423 123.351 234.329 115.305 238.307C107.259 242.285 110.594 245.202 110.594 250.988C110.594 256.773 115.959 269.064 122.471 270.511C128.983 271.959 181.978 270.511 181.978 270.511H188.873V270.514Z" fill="#7C4841"/>
<g opacity="0.23" style="mix-blend-mode:multiply">
<path d="M179.248 229.955C176.922 217.926 184.291 205.896 184.678 193.867C184.678 190.373 183.125 186.882 181.185 183.778C175.16 174.401 167.977 166.182 160.138 158.62H115.692C115.192 159.313 114.757 160.045 114.442 160.834C113.191 163.126 111.941 165.212 110.482 167.507C105.397 175.681 101.543 185.876 96.7649 194.138C102.001 198.106 97.4995 203.034 100.715 208.717C102.278 211.453 106.148 215.76 108.716 213.523C112.138 210.719 115.959 208.253 119.442 206.074C120.277 211.286 123.193 216.498 121.108 221.71C119.104 227 116.517 231.98 113.675 236.831C114.135 239.248 114.403 241.746 114.461 244.318C114.461 247.423 116.787 250.14 119.117 251.69C122.61 253.631 127.652 253.244 129.979 255.958C133.546 260.367 134.503 265.683 134.934 271.172H145.716C144.936 266.028 143.489 260.941 145.906 256.106C145.906 255.897 146.946 255.69 147.156 255.271C150.281 252.561 154.032 250.475 157.576 250.894C163.202 251.519 168.622 255.271 171.747 260.274C173.89 263.723 174.199 267.381 174.054 271.172H196.793C194.615 255.823 191.554 240.064 179.242 229.959L179.248 229.955Z" fill="#7C4841"/>
</g>
<path d="M182.393 150.729C182.393 150.729 185.329 151.035 192.234 161.376C199.142 171.716 210.435 191.208 210.4 194.325C210.361 197.442 209.362 200.878 204.855 201.767C200.344 202.657 196.548 201.11 194.486 198.218C192.424 195.327 179.796 175.04 179.796 175.04L182.393 150.729Z" fill="#CACCCD"/>
<path d="M202.567 188.79C199.216 187.839 195.23 193.931 193.091 192.213C189.653 189.1 188.183 185.757 188.438 181.773C188.786 171.523 189.424 160.054 182.303 151.551L179.793 175.036C179.793 175.036 192.417 195.324 194.483 198.215C195.772 200.017 197.734 201.3 200.121 201.79C199.577 198.183 201.343 192.152 202.564 188.79H202.567Z" fill="#A9ACAE"/>
<path d="M130.053 150.359C130.053 150.359 127.224 150.681 120.538 161.305C113.852 171.929 103.251 193.271 103.28 196.468C103.309 199.666 104.611 203.128 108.957 204.027C113.304 204.926 114.603 204.056 116.6 201.084C118.598 198.115 132.498 175.288 132.498 175.288L130.053 150.355V150.359Z" fill="#CACCCD"/>
<path d="M130.104 150.868C128.642 152.715 127.707 154.936 126.902 157.031C123.841 164.18 125.065 171.942 120.979 178.885C119.549 181.132 117.918 182.969 116.079 184.809C110.959 189.187 108.152 193.113 103.335 197.641C103.59 200.481 105.271 203.147 109.093 203.94C113.44 204.839 114.603 204.059 116.601 201.087C118.598 198.119 132.499 175.291 132.499 175.291L130.104 150.865V150.868Z" fill="#A9ACAE"/>
<path d="M197.705 280.803C197.347 281.983 196.996 283.156 196.651 284.307C192.988 286.038 187.942 285.912 184.062 284.291C182.696 283.804 181.517 283.14 180.454 282.363L180.673 280.997L197.708 280.807L197.705 280.803Z" fill="#FCDABC"/>
<path d="M184.111 284.301C188.029 285.928 193.12 286.061 196.815 284.33C193.819 294.341 191.463 302.867 191.86 303.686C192.031 304.037 192.269 304.488 192.559 305.017C191.447 304.485 190.181 304.153 188.87 304.063C185.809 303.986 182.438 304.521 180.692 306.687C180.489 306.938 180.305 307.212 180.151 307.509C178.784 305.929 178.024 304.053 177.309 302.174L180.466 282.367C181.542 283.147 182.735 283.814 184.111 284.304V284.301Z" fill="#057C8C"/>
<path d="M189.869 301.097C190.313 299.096 190.916 297.139 191.557 295.179C192.637 291.875 193.281 288.388 194.55 285.119C195.343 284.923 196.104 284.658 196.812 284.326C193.816 294.338 191.46 302.864 191.857 303.682C192.028 304.034 192.266 304.485 192.556 305.014C191.509 304.514 190.326 304.192 189.099 304.082C189.414 303.102 189.643 302.103 189.866 301.101L189.869 301.097Z" fill="#0CB5CC"/>
<path d="M187.884 296.056C188.854 292.597 189.376 289.058 190.007 285.542C190.916 285.571 191.824 285.532 192.711 285.416C191.705 288.288 191.106 291.292 190.178 294.17C189.543 296.14 188.876 298.1 188.415 300.108C188.113 301.423 187.855 302.741 187.41 304.014C186.766 304.04 186.118 304.102 185.49 304.205C186.302 301.491 187.123 298.78 187.887 296.056H187.884Z" fill="#0CB5CC"/>
<path d="M183.83 296.233C184.662 292.494 185.448 288.742 186.118 284.978C186.891 285.181 187.687 285.329 188.493 285.426C187.871 288.91 187.349 292.411 186.389 295.837C185.567 298.767 184.678 301.684 183.808 304.604C183.092 304.833 182.429 305.143 181.845 305.542C182.719 302.483 183.144 299.331 183.834 296.233H183.83Z" fill="#0CB5CC"/>
<path d="M182.106 283.414C181.73 285.377 181.452 287.356 181.108 289.326C180.747 291.398 180.196 293.432 179.677 295.476C179.129 297.636 178.594 299.76 177.831 301.871C177.721 302.171 177.628 302.474 177.544 302.777C177.46 302.564 177.38 302.348 177.299 302.135L180.454 282.363C180.976 282.744 181.523 283.095 182.106 283.414Z" fill="#0CB5CC"/>
<path d="M179.535 301.529C180.218 299.605 180.679 297.658 181.179 295.692C181.713 293.584 182.271 291.489 182.641 289.352C182.944 287.598 183.202 285.835 183.524 284.081C183.701 284.152 183.882 284.223 184.066 284.288C184.262 284.368 184.462 284.446 184.665 284.52C184.008 288.236 183.237 291.937 182.419 295.627C181.575 299.428 181.156 303.354 179.79 307.048C179.329 306.451 178.942 305.816 178.601 305.162C178.852 303.94 179.11 302.722 179.532 301.526L179.535 301.529Z" fill="#0CB5CC"/>
<path d="M188.573 316.524C184.594 313.627 183.663 309.436 181.945 305.562C183.798 304.33 186.431 303.998 188.87 304.063C190.178 304.153 191.444 304.485 192.559 305.017C194.16 307.934 197.35 313.259 199.619 317.82C195.842 318.645 191.528 318.758 188.576 316.528L188.573 316.524Z" fill="#084266"/>
<path d="M201.423 324.135C189.904 327.126 178.723 321.572 173.864 313.111C173.722 307.544 177.286 302.306 177.286 302.306L177.309 302.174C178.024 304.05 178.784 305.926 180.151 307.509C180.309 307.212 180.489 306.938 180.692 306.687C181.046 306.245 181.472 305.878 181.945 305.562C183.663 309.439 184.594 313.63 188.573 316.524C191.525 318.758 195.839 318.642 199.616 317.817C200.885 320.37 201.865 322.681 202.116 324.202C201.868 324.164 201.62 324.164 201.42 324.135H201.423Z" fill="#0B3251"/>
<path d="M201.397 324.06C201.597 324.089 201.842 324.089 202.09 324.128C202.235 324.995 202.145 325.608 201.729 325.856C199.071 327.448 184.832 327.6 177.228 320.557C174.808 318.313 173.935 315.648 173.867 313.05C178.72 321.498 189.888 327.042 201.394 324.057L201.397 324.06Z" fill="#084266"/>
<path d="M124.037 281C124.359 282.196 124.678 283.382 124.988 284.546C128.661 286.444 133.8 286.551 137.809 285.116C139.217 284.694 140.441 284.085 141.549 283.359L141.375 281.983L124.037 281Z" fill="#FCDABC"/>
<path d="M137.763 285.123C133.72 286.563 128.529 286.46 124.826 284.562C127.533 294.696 129.64 303.318 129.209 304.114C129.022 304.456 128.764 304.898 128.451 305.41C129.602 304.93 130.903 304.659 132.241 304.63C135.36 304.695 138.772 305.384 140.476 307.628C140.676 307.889 140.85 308.169 141.002 308.476C142.448 306.961 143.286 305.123 144.079 303.283L141.546 283.359C140.425 284.088 139.187 284.7 137.767 285.123H137.763Z" fill="#057C8C"/>
<path d="M131.322 301.626C130.936 299.608 130.394 297.626 129.808 295.64C128.822 292.291 128.284 288.781 127.104 285.458C126.302 285.223 125.539 284.926 124.826 284.562C127.533 294.696 129.64 303.318 129.209 304.114C129.022 304.456 128.764 304.898 128.451 305.41C129.534 304.959 130.752 304.695 132.005 304.64C131.719 303.647 131.519 302.638 131.325 301.626H131.322Z" fill="#0CB5CC"/>
<path d="M133.516 296.685C132.646 293.184 132.237 289.629 131.715 286.09C130.787 286.077 129.863 285.993 128.967 285.838C129.892 288.752 130.397 291.779 131.245 294.696C131.825 296.691 132.434 298.68 132.837 300.707C133.098 302.032 133.317 303.363 133.726 304.656C134.383 304.711 135.037 304.801 135.675 304.933C134.941 302.187 134.2 299.441 133.516 296.685Z" fill="#0CB5CC"/>
<path d="M137.638 297.052C136.919 293.278 136.249 289.5 135.695 285.709C134.902 285.874 134.087 285.99 133.262 286.048C133.778 289.555 134.187 293.075 135.047 296.54C135.782 299.505 136.587 302.458 137.373 305.413C138.092 305.678 138.759 306.016 139.342 306.442C138.556 303.347 138.234 300.179 137.638 297.055V297.052Z" fill="#0CB5CC"/>
<path d="M139.832 284.33C140.148 286.309 140.363 288.298 140.644 290.28C140.94 292.365 141.433 294.422 141.888 296.485C142.371 298.667 142.845 300.814 143.55 302.957C143.65 303.26 143.734 303.567 143.811 303.876C143.905 303.666 143.995 303.457 144.082 303.247L141.549 283.359C141.005 283.714 140.434 284.04 139.829 284.333L139.832 284.33Z" fill="#0CB5CC"/>
<path d="M141.83 302.538C141.201 300.585 140.795 298.619 140.357 296.633C139.887 294.506 139.391 292.385 139.088 290.235C138.84 288.468 138.637 286.699 138.369 284.932C138.186 284.997 138.002 285.058 137.812 285.113C137.609 285.187 137.403 285.255 137.193 285.319C137.734 289.062 138.392 292.791 139.097 296.514C139.826 300.35 140.119 304.285 141.382 308.041C141.872 307.467 142.287 306.851 142.658 306.213C142.445 304.982 142.226 303.754 141.833 302.538H141.83Z" fill="#0CB5CC"/>
<path d="M132.108 317.088C136.262 314.381 137.354 310.242 139.236 306.448C137.39 305.133 134.722 304.682 132.237 304.63C130.9 304.659 129.602 304.933 128.448 305.41C126.718 308.247 123.289 313.414 120.821 317.865C124.64 318.864 129.028 319.177 132.108 317.085V317.088Z" fill="#084266"/>
<path d="M118.766 324.089C130.394 327.609 141.968 322.587 147.207 314.361C147.542 308.808 144.092 303.415 144.092 303.415L144.075 303.283C143.283 305.123 142.445 306.961 140.998 308.476C140.85 308.169 140.673 307.889 140.473 307.628C140.125 307.173 139.706 306.783 139.236 306.448C137.354 310.239 136.262 314.381 132.108 317.088C129.025 319.18 124.64 318.864 120.821 317.868C119.442 320.357 118.366 322.62 118.053 324.128C118.308 324.099 118.559 324.112 118.762 324.093L118.766 324.089Z" fill="#0B3251"/>
<path d="M118.775 324.022C118.572 324.041 118.318 324.031 118.066 324.057C117.889 324.918 117.96 325.534 118.373 325.798C121.024 327.509 135.527 328.322 143.518 321.643C146.064 319.516 147.043 316.892 147.198 314.303C141.962 322.513 130.394 327.532 118.775 324.019V324.022Z" fill="#084266"/>
<path d="M129.138 226.145C129.128 225.852 129.212 225.536 129.386 225.207C129.231 220.05 129.331 212.962 129.331 212.962L180.966 213.533L182.722 214.28C182.722 214.28 183.473 218.706 183.972 223.47C190.252 230.284 198.485 238.671 200.708 248.66C204.027 263.588 195.488 301.242 195.488 301.242C195.488 301.242 189.888 304.666 183.102 302.309C176.316 299.953 176.107 296.578 176.107 296.578L177.583 257.76C177.46 255.864 174.09 254.659 172.724 253.366C170.259 251.036 164.446 248.464 158.25 244.199C157.492 244.235 155.595 244.354 154.792 244.377C147.153 250.839 139.316 254.769 138.501 257.283C137.122 261.544 146.569 297.281 146.569 297.281C146.569 297.281 143.95 301.317 137.267 300.985C130.581 300.653 127.994 299.85 127.994 299.85C127.994 299.85 114.519 262.479 113.755 255.784C112.676 246.323 129.315 230.813 129.134 226.142L129.138 226.145Z" fill="#084266"/>
<path d="M182.242 266.031C183.282 261.654 188.702 260.609 191.618 257.483C186.408 257.898 182.657 254.565 180.991 249.56C179.951 247.058 177.241 245.389 174.947 243.513C173.071 241.846 171.821 239.761 170.152 237.675C168.486 235.174 169.527 231.212 172.862 230.171C177.315 228.482 181.884 227.583 185.979 225.643C185.296 224.901 184.623 224.179 183.972 223.47C183.472 218.703 182.722 214.28 182.722 214.28L180.966 213.533L129.331 212.962C129.331 212.962 129.231 220.05 129.386 225.207C129.212 225.536 129.128 225.852 129.138 226.145C129.157 226.684 128.954 227.367 128.58 228.166C129.779 228.473 131.142 228.386 132.228 228.505C136.188 228.921 140.354 227.88 144.314 229.546C148.483 231.212 151.815 236.844 149.524 241.011C148.274 243.303 146.189 244.973 144.314 246.849C137.438 253.937 128.477 263.317 117.847 257.898C119.097 263.11 122.642 267.904 127.224 271.24C129.515 272.7 130.559 275.201 131.184 277.702C133.133 285.5 133.123 293.294 134.87 300.833C135.601 300.888 136.397 300.939 137.264 300.985C143.95 301.317 146.566 297.281 146.566 297.281C146.566 297.281 137.119 261.544 138.498 257.283C139.31 254.769 147.149 250.839 154.789 244.377C155.591 244.354 157.492 244.235 158.246 244.199C164.446 248.464 170.255 251.036 172.72 253.366C174.086 254.659 177.46 255.864 177.579 257.76L176.136 295.718C176.232 293.961 176.381 292.198 176.613 290.419C177.447 282.08 180.363 274.576 182.238 266.028L182.242 266.031Z" fill="#0B3251"/>
<g opacity="0.5" style="mix-blend-mode:multiply">
<path d="M146.602 144.389L140.389 145.704C140.389 145.704 146.06 159.883 146.515 159.432C146.969 158.981 154.805 150.729 154.805 150.729L146.602 144.389Z" fill="#97C0D9"/>
</g>
<g opacity="0.5" style="mix-blend-mode:multiply">
<path d="M161.527 143.567L168.548 144.627C168.548 144.627 164.884 160.035 164.42 159.597C163.953 159.158 154.689 150.687 154.689 150.687L161.53 143.567H161.527Z" fill="#97C0D9"/>
</g>
<path d="M128.838 221.552L128.854 224.411C128.854 224.882 129.231 225.294 129.766 225.417C133.433 226.261 148.164 226.2 159.097 225.585C169.885 224.979 180.47 224.698 183.601 223.709C184.107 223.547 184.433 223.128 184.407 222.671L184.32 221.149C184.288 220.588 183.74 220.147 183.073 220.153L130.069 220.498C129.383 220.501 128.828 220.975 128.832 221.555L128.838 221.552Z" fill="#0CB5CC"/>
<path d="M163.292 143.87C162.313 143.76 161.298 143.677 160.247 143.622L160.186 139.128C160.151 136.453 158.053 134.297 155.524 134.332L153.803 134.355C151.277 134.39 149.237 136.608 149.273 139.28L149.334 143.886C148.451 143.98 147.594 144.092 146.766 144.225L149.366 146.197L149.379 147.2C149.414 149.875 151.512 152.031 154.041 151.996L155.762 151.973C158.288 151.938 160.328 149.72 160.292 147.048L160.283 146.275L163.292 143.873V143.87Z" fill="#FCDABC"/>
<g opacity="0.89" style="mix-blend-mode:multiply">
<path d="M160.563 143.638C160.457 143.631 160.354 143.625 160.247 143.619L160.186 139.125C160.151 136.45 158.053 134.293 155.524 134.329L153.803 134.351C151.277 134.387 149.237 136.605 149.273 139.277L149.334 143.883C148.996 143.918 148.66 143.96 148.329 144.002C152.128 146.081 156.494 145.404 160.557 143.641L160.563 143.638Z" fill="#FCDABC"/>
</g>
<path d="M163.292 143.87L155.015 150.481L146.772 144.225C143.824 144.695 141.204 145.385 138.885 146.188C140.811 149.952 143.946 153.16 147.829 154.439C157.025 157.624 167.23 153.769 172.823 145.946C170.084 145.034 166.924 144.279 163.292 143.873V143.87Z" fill="#FAF5DF"/>
<path d="M172.82 145.943C167.226 153.766 157.019 157.624 147.826 154.436C143.943 153.156 140.808 149.949 138.881 146.184C137.46 146.674 136.152 147.209 134.944 147.757C135.476 150.91 137.209 153.833 139.455 155.941C146.25 162.098 155.839 163.7 163.853 160.638C169.588 158.417 175.424 154.033 177.231 147.67C175.897 147.064 174.431 146.478 172.82 145.939V145.943Z" fill="#07899B"/>
<path d="M139.349 147.042C139.187 146.758 139.03 146.474 138.881 146.184C137.46 146.674 136.152 147.209 134.944 147.757C135.05 148.396 135.211 149.024 135.411 149.637C136.69 148.715 137.989 147.825 139.345 147.039L139.349 147.042Z" fill="#0CB5CC"/>
<path d="M140.692 149.072C140.393 148.676 140.106 148.27 139.838 147.851C138.427 148.666 137.077 149.598 135.746 150.558C135.988 151.151 136.268 151.728 136.584 152.286C137.957 151.219 139.374 150.217 140.692 149.076V149.072Z" fill="#0CB5CC"/>
<path d="M140.38 156.734C141.53 155.245 142.651 153.727 143.914 152.341C143.547 152.06 143.189 151.761 142.845 151.445C141.865 152.231 140.989 153.311 140.148 154.181C139.745 154.597 139.349 155.023 138.959 155.451C139.123 155.619 139.287 155.787 139.458 155.945C139.761 156.219 140.07 156.48 140.383 156.734H140.38Z" fill="#0CB5CC"/>
<path d="M145.658 153.482C145.323 153.295 144.994 153.095 144.672 152.882C143.389 154.272 142.262 155.8 141.102 157.302C141.607 157.685 142.126 158.04 142.655 158.378C143.676 156.76 144.707 155.148 145.654 153.482H145.658Z" fill="#0CB5CC"/>
<path d="M147.797 154.426C147.346 154.275 146.904 154.098 146.476 153.898C145.519 155.587 144.475 157.218 143.441 158.855C143.879 159.113 144.327 159.352 144.778 159.58C145.764 157.85 146.737 156.106 147.797 154.426Z" fill="#0CB5CC"/>
<path d="M150.114 155.078C149.64 154.974 149.17 154.858 148.702 154.716C147.61 156.428 146.614 158.207 145.609 159.977C146.328 160.303 147.056 160.593 147.797 160.847C148.612 158.942 149.437 157.041 150.117 155.078H150.114Z" fill="#0CB5CC"/>
<path d="M151.258 159.01C151.47 158.082 151.673 157.147 151.902 156.225C151.97 155.957 152.054 155.687 152.124 155.413C151.754 155.371 151.38 155.319 151.01 155.255C150.323 157.253 149.489 159.19 148.661 161.128C149.324 161.328 149.991 161.495 150.665 161.637C150.858 160.763 151.055 159.887 151.254 159.013L151.258 159.01Z" fill="#0CB5CC"/>
<path d="M154.022 158.955C154.09 157.853 154.012 156.66 154.18 155.545C153.797 155.538 153.413 155.526 153.03 155.497C152.965 155.758 152.891 156.015 152.823 156.273C152.598 157.15 152.408 158.04 152.205 158.923C151.986 159.883 151.767 160.841 151.554 161.805C152.298 161.93 153.043 162.021 153.793 162.079C153.884 161.041 153.954 160 154.019 158.958L154.022 158.955Z" fill="#0CB5CC"/>
<path d="M156.845 159.709C156.735 158.307 156.465 156.876 156.423 155.458C155.981 155.5 155.537 155.526 155.092 155.538C155.002 156.141 155.031 156.766 155.011 157.376C154.986 158.233 154.921 159.094 154.863 159.948C154.815 160.676 154.757 161.402 154.692 162.127C155.472 162.156 156.252 162.146 157.028 162.101C156.961 161.305 156.906 160.506 156.845 159.709Z" fill="#0CB5CC"/>
<path d="M159.864 159.155C159.548 157.824 159.084 156.467 158.82 155.1C158.324 155.203 157.828 155.29 157.325 155.358C157.357 156.696 157.615 158.04 157.721 159.368C157.792 160.254 157.85 161.144 157.924 162.033C158.772 161.95 159.613 161.817 160.444 161.643C160.254 160.815 160.061 159.987 159.864 159.158V159.155Z" fill="#0CB5CC"/>
<path d="M161.301 154.436C160.779 154.61 160.251 154.765 159.716 154.897C159.848 155.471 160.032 156.032 160.177 156.602C160.399 157.469 160.599 158.346 160.808 159.219C160.982 159.958 161.153 160.696 161.324 161.434C162.068 161.247 162.803 161.021 163.528 160.757C162.661 158.701 161.897 156.596 161.301 154.436Z" fill="#0CB5CC"/>
<path d="M165.854 152.347C165.4 152.618 164.936 152.879 164.462 153.118C164.942 154.31 165.725 155.432 166.244 156.557C166.618 157.369 167.001 158.178 167.4 158.975C167.955 158.668 168.499 158.34 169.034 157.991C167.861 156.18 166.73 154.343 165.854 152.347Z" fill="#0CB5CC"/>
<path d="M174.106 146.926C174.75 147.216 175.375 147.57 175.988 147.928C176.316 148.118 176.638 148.318 176.957 148.521C177.054 148.241 177.147 147.96 177.228 147.67C175.894 147.064 174.428 146.478 172.817 145.939C172.73 146.059 172.64 146.175 172.553 146.291C173.059 146.52 173.59 146.69 174.103 146.922L174.106 146.926Z" fill="#0CB5CC"/>
<path d="M175.546 148.76C174.837 148.344 174.116 147.941 173.358 147.635C172.885 147.445 172.414 147.28 171.96 147.055C171.837 147.206 171.718 147.358 171.589 147.503C173.101 148.492 174.615 149.488 176.068 150.568C176.265 150.191 176.448 149.804 176.613 149.411C176.261 149.185 175.904 148.966 175.543 148.753L175.546 148.76Z" fill="#0CB5CC"/>
<path d="M170.958 148.215C170.616 148.582 170.262 148.937 169.901 149.282C170.906 150.204 171.97 151.052 172.933 152.038C173.368 152.479 173.796 152.931 174.225 153.379C174.731 152.75 175.195 152.089 175.611 151.396C174.103 150.272 172.53 149.243 170.958 148.218V148.215Z" fill="#0CB5CC"/>
<path d="M172.305 152.721C171.322 151.716 170.236 150.852 169.208 149.91C168.899 150.178 168.586 150.442 168.264 150.694C169.095 151.761 169.972 152.789 170.781 153.878C171.219 154.465 171.651 155.055 172.095 155.635C172.63 155.148 173.139 154.633 173.619 154.094C173.181 153.637 172.746 153.179 172.302 152.728L172.305 152.721Z" fill="#0CB5CC"/>
<path d="M170.194 154.62C169.34 153.466 168.412 152.373 167.533 151.242C167.236 151.458 166.933 151.664 166.627 151.864C167.481 153.853 168.615 155.68 169.788 157.479C170.342 157.089 170.884 156.673 171.406 156.235C170.996 155.7 170.597 155.158 170.197 154.617L170.194 154.62Z" fill="#0CB5CC"/>
<path d="M165.335 156.754C164.839 155.671 164.117 154.633 163.647 153.514C163.16 153.737 162.664 153.946 162.161 154.133C162.754 156.286 163.511 158.385 164.378 160.431C165.123 160.125 165.864 159.784 166.598 159.406C166.16 158.533 165.744 157.646 165.335 156.754Z" fill="#0CB5CC"/>
<path d="M139.719 153.282C140.499 152.483 141.285 151.535 142.168 150.79C141.859 150.471 141.556 150.143 141.269 149.801C139.919 150.965 138.466 151.986 137.064 153.082C137.448 153.675 137.873 154.236 138.327 154.765C138.785 154.265 139.246 153.769 139.719 153.285V153.282Z" fill="#0CB5CC"/>
<path d="M184.062 152.041C182.635 150.172 182.409 150.017 177.231 147.674C175.424 154.036 169.588 158.417 163.853 160.641C155.84 163.706 146.254 162.101 139.455 155.945C137.212 153.837 135.476 150.916 134.944 147.761C129.176 150.388 129.109 150.575 127.014 152.663C123.041 156.625 126.044 166.91 126.573 181.544C127.037 194.479 127.272 215.67 127.723 221.697C127.791 222.593 128.48 223.325 129.399 223.476C134.006 224.234 146.412 223.206 156.658 223.357C166.357 222.935 179.284 223.151 183.466 221.991C184.449 221.717 185.216 220.901 185.267 219.915C186.269 201.587 184.268 201.439 184.6 186.524C184.926 171.884 187.819 156.963 184.062 152.044V152.041Z" fill="#CACCCD"/>
<path d="M184.6 186.521C184.7 182.06 185.039 177.573 185.354 173.351C184.471 172.387 183.566 171.439 182.638 170.511C178.369 166.069 173.954 161.199 168.564 158.291C167.043 159.236 165.445 160.022 163.853 160.638C158.127 162.826 151.599 162.633 145.857 160.096C145.651 160.364 145.458 160.638 145.277 160.908C139.323 169.015 133.101 175.784 126.612 182.621C126.779 187.569 126.918 193.561 127.047 199.411C133.017 194.976 140.364 191.301 140.989 183.784C148.748 187.053 158.546 189.912 165.284 184.397C170.185 180.516 169.163 172.754 169.163 166.424C171.206 169.283 173.858 172.754 177.737 172.754C174.315 180.381 180.376 186.937 184.629 193.696C184.558 191.691 184.536 189.377 184.6 186.521Z" fill="#A9ACAE"/>
<path d="M147.987 143.374L140.093 145.259C140.093 145.259 146.041 158.165 146.495 157.717C146.95 157.266 154.715 150.484 154.715 150.484L147.99 143.374H147.987Z" fill="#97C0D9"/>
<path d="M160.199 142.906L168.635 144.505C168.635 144.505 164.861 158.317 164.394 157.879C163.927 157.44 154.593 150.439 154.593 150.439L160.202 142.903L160.199 142.906Z" fill="#97C0D9"/>
<path d="M122.919 117.2C123.599 122.496 123.006 126.429 119.01 126.935C115.015 127.441 109.131 124.327 108.452 119.034C107.772 113.738 110.462 109.035 114.454 108.529C118.45 108.023 122.239 111.904 122.916 117.2H122.919Z" fill="#FCDABC"/>
<g opacity="0.89" style="mix-blend-mode:multiply">
<path d="M115.054 112.007C113.823 111.466 112.179 112.143 111.222 113.3C110.62 114.528 110.485 116.111 110.694 117.271C111.522 115.721 112.959 113.142 114.719 114.638C115.205 115.015 115.598 115.434 115.917 115.891C114.925 115.695 113.765 116.352 113.104 117.033C112.102 118.396 112.75 120.017 113.791 121.126C113.852 120.069 113.729 119.005 114.503 118.335C114.889 118 115.617 118.212 115.779 118.573C115.933 119.112 115.157 119.779 115.308 120.317C115.472 120.678 115.624 121.216 116.178 121.242C116.529 121.326 116.913 121.361 117.287 121.31C117.335 122.525 117.328 123.734 117.448 124.833C120.818 120.759 119.719 114.173 115.05 112.007H115.054Z" fill="#FCDABC"/>
</g>
<path d="M178.871 109.819C179.609 115.105 181.214 118.751 185.203 118.203C189.192 117.655 194.054 113.126 193.319 107.836C192.582 102.55 188.75 98.7079 184.761 99.2527C180.772 99.8007 178.137 104.529 178.871 109.819Z" fill="#FCDABC"/>
<g opacity="0.89" style="mix-blend-mode:multiply">
<path d="M185.1 102.766C186.144 101.925 187.913 102.15 189.137 103.021C190.039 104.052 190.59 105.545 190.69 106.715C189.485 105.435 187.416 103.317 186.115 105.219C185.741 105.709 185.473 106.218 185.287 106.74C186.195 106.292 187.487 106.628 188.303 107.114C189.627 108.172 189.43 109.903 188.715 111.243C188.38 110.241 188.219 109.181 187.294 108.736C186.83 108.513 186.186 108.907 186.124 109.297C186.118 109.854 187.043 110.299 187.036 110.857C186.972 111.247 186.965 111.804 186.44 111.975C186.121 112.149 185.76 112.281 185.386 112.326C185.657 113.509 185.983 114.676 186.157 115.769C181.832 112.71 181.162 106.067 185.1 102.766Z" fill="#FCDABC"/>
</g>
<path d="M183.195 99.0722C179.548 79.1262 169.076 61.5527 144.327 64.8179C120.203 68.0026 112.982 87.8905 115.395 108.02C118.443 133.42 130.143 143.406 144.997 142.5C147.439 143.789 150.945 144.353 154.715 143.857C158.878 143.309 162.384 141.594 164.327 139.428C179.683 135.638 187.043 120.13 183.192 99.0722H183.195Z" fill="#FCDABC"/>
<g opacity="0.89" style="mix-blend-mode:multiply">
<path d="M121.569 81.5341C123.705 78.5557 126.66 75.8546 130.172 74.4266C128.1 76.4348 128.123 79.513 127.085 81.9628C132.015 70.7166 146.421 70.549 157.035 69.727C162.042 69.2596 166.138 72.1864 170.375 74.7103C167.101 79.3809 168.776 86.0951 173.091 89.1862C176.619 91.5844 180.048 94.047 182.793 97.0318C178.81 77.9497 168.226 61.6687 144.327 64.8211C121.205 67.8736 113.613 86.2691 115.147 105.512C115.434 104.865 115.766 104.239 116.14 103.636C120.477 96.7063 124.981 89.5634 121.569 81.5373V81.5341Z" fill="#FCDABC"/>
</g>
<g opacity="0.89" style="mix-blend-mode:multiply">
<path d="M145.99 133.884C147.829 135.902 150.223 136.969 152.795 137.133C157.302 137.311 160.589 134.177 163.299 131.125C158.182 133.971 151.793 136.308 145.99 133.887V133.884Z" fill="#FCDABC"/>
</g>
<g opacity="0.89" style="mix-blend-mode:multiply">
<path d="M152.911 103.021C152.292 107.147 156.12 109.532 158.775 111.878C156.593 108.043 154.357 103.794 154.908 99.3558C153.99 100.458 153.188 101.602 152.911 103.021Z" fill="#FCDABC"/>
</g>
<path d="M124.62 101.731C126.202 96.6482 130.597 95.765 134.925 96.5838C135.859 96.7611 136.681 95.7941 136.7 94.7594C136.719 93.6054 135.936 92.7287 134.996 92.5514C132.202 92.0228 129.334 92.1162 126.782 93.3089C124.085 94.5692 122.255 97.1865 121.276 100.326C120.963 101.328 121.601 102.563 122.468 102.927C123.415 103.327 124.308 102.737 124.62 101.731Z" fill="#D6D9DA"/>
<path d="M171.109 95.3653C168.515 91.2975 164.259 91.4522 160.437 93.0703C159.613 93.4185 158.636 92.7577 158.391 91.8648C158.118 90.872 158.649 89.9469 159.477 89.5956C161.942 88.5512 164.613 88.0291 167.239 88.5287C170.014 89.0541 172.288 90.9365 173.887 93.4475C174.399 94.2501 174.083 95.4524 173.365 95.952C172.575 96.4967 171.622 96.1712 171.109 95.3686V95.3653Z" fill="#D6D9DA"/>
<path d="M128.045 93.4249C128.003 93.4409 127.961 93.4634 127.917 93.4954C127.958 93.4698 128 93.4506 128.045 93.4249Z" fill="#E8E9EA"/>
<path d="M134.996 92.5514C132.202 92.0228 129.334 92.1162 126.782 93.3089C124.085 94.5692 122.255 97.1865 121.276 100.326C121.15 100.729 121.179 101.171 121.314 101.577C121.959 99.0528 123.76 96.8545 126.18 95.7618C125.609 95.8682 125.039 95.9713 124.504 96.2647C125.622 94.8947 127.523 94.5434 128.906 93.5119C128.574 93.5732 128.332 93.3218 128.049 93.4281C128.007 93.4539 127.962 93.4733 127.92 93.499C127.965 93.4668 128.007 93.4442 128.049 93.4281C130.314 92.1195 132.869 92.4192 135.163 93.3314C135.94 93.5828 136.436 94.1276 136.697 94.8142C136.697 94.798 136.697 94.7787 136.7 94.7626C136.719 93.6086 135.936 92.7319 134.996 92.5546V92.5514Z" fill="#F8F6EC"/>
<path d="M173.887 93.4475C172.285 90.9365 170.014 89.0541 167.24 88.5287C164.613 88.0291 161.942 88.5512 159.477 89.5956C158.723 89.9147 158.221 90.7076 158.34 91.5941C158.917 90.5432 160.273 89.8277 161.375 89.4796C161.03 89.7374 160.911 90.1468 160.566 90.4046C163.102 88.1902 166.266 89.3571 169.141 89.9921C169.105 89.8051 168.689 89.6858 168.654 89.4989C170.194 90.3821 171.27 91.9293 172.469 93.0703C172.208 92.7287 171.947 92.3902 171.879 92.0131C172.585 92.9382 173.539 93.7279 174.119 94.6788C174.186 94.2533 174.125 93.8085 173.893 93.4475H173.887Z" fill="#F8F6EC"/>
<g style="mix-blend-mode:multiply" opacity="0.75">
<path d="M127.981 111.769C129.118 114.573 131.88 115.833 134.154 114.586C136.436 113.345 137.36 110.064 136.229 107.269C135.095 104.465 132.334 103.204 130.056 104.449C127.781 105.69 126.853 108.968 127.984 111.769H127.981Z" fill="#FEDDBE"/>
</g>
<path d="M128.519 111.527C129.553 114.096 132.073 115.247 134.148 114.106C136.226 112.968 137.074 109.957 136.043 107.398C135.008 104.829 132.489 103.672 130.41 104.816C128.335 105.957 127.485 108.961 128.519 111.527Z" fill="white"/>
<path d="M133.678 114.151C132.128 114.58 130.475 113.406 130.001 111.537C129.524 109.661 130.394 107.795 131.951 107.369C133.497 106.937 135.144 108.11 135.627 109.986C136.101 111.853 135.234 113.716 133.678 114.151Z" fill="#9B462C"/>
<path d="M133.803 113.348C132.885 113.6 131.915 112.907 131.625 111.801C131.342 110.686 131.864 109.587 132.779 109.329C133.7 109.077 134.676 109.767 134.957 110.882C135.237 111.991 134.722 113.094 133.8 113.348H133.803Z" fill="#5D210C"/>
<path d="M131.59 111.643C131.206 111.804 130.771 111.508 130.623 110.982C130.481 110.457 130.671 109.896 131.068 109.735C131.451 109.574 131.889 109.874 132.034 110.396C132.176 110.921 131.98 111.479 131.59 111.64V111.643Z" fill="white"/>
<g opacity="0.48" style="mix-blend-mode:screen">
<path d="M133.43 111.195C132.502 112.03 132.018 112.92 132.115 114.067C132.614 114.254 133.152 114.296 133.678 114.151C133.948 114.074 134.196 113.951 134.425 113.796C133.839 113.158 133.633 112.178 133.433 111.192L133.43 111.195Z" fill="#9B462C"/>
</g>
<g style="mix-blend-mode:multiply" opacity="0.75">
<path d="M172.363 105.993C171.983 108.936 169.595 110.841 167.033 110.251C164.465 109.667 162.693 106.808 163.073 103.878C163.454 100.935 165.835 99.0271 168.403 99.6137C170.964 100.197 172.737 103.053 172.36 105.993H172.363Z" fill="#FEDDBE"/>
</g>
<path d="M171.77 105.906C171.428 108.6 169.253 110.341 166.914 109.799C164.572 109.261 162.951 106.641 163.293 103.952C163.634 101.258 165.806 99.5138 168.148 100.052C170.488 100.59 172.111 103.211 171.77 105.902V105.906Z" fill="white"/>
<path d="M168.048 109.661C166.47 110.089 164.794 108.948 164.32 107.118C163.844 105.284 164.739 103.449 166.325 103.024C167.9 102.595 169.569 103.736 170.049 105.57C170.523 107.398 169.631 109.226 168.048 109.661Z" fill="#9B462C"/>
<path d="M167.742 109.048C166.808 109.3 165.822 108.626 165.535 107.543C165.252 106.45 165.79 105.374 166.721 105.116C167.659 104.864 168.648 105.538 168.928 106.628C169.208 107.711 168.68 108.797 167.742 109.048Z" fill="#5D210C"/>
<path d="M165.941 106.995C165.548 107.156 165.11 106.866 164.962 106.354C164.82 105.841 165.016 105.29 165.419 105.129C165.809 104.971 166.254 105.261 166.399 105.773C166.54 106.289 166.337 106.837 165.941 106.995Z" fill="white"/>
<g opacity="0.48" style="mix-blend-mode:screen">
<path d="M167.813 106.763C166.866 107.585 166.37 108.458 166.46 109.587C166.966 109.767 167.514 109.806 168.048 109.661C168.326 109.583 168.577 109.464 168.809 109.309C168.216 108.687 168.01 107.73 167.813 106.763Z" fill="#9B462C"/>
</g>
<path d="M141.765 128.756C144.172 131.476 148.119 133.839 154.383 132.788C160.325 131.792 163.318 128.772 164.82 125.806C164.568 125.729 164.32 125.661 164.082 125.603C156.387 123.766 148.783 125.678 141.765 128.753V128.756Z" fill="#F05D80"/>
<path d="M138.385 122.554C138.385 122.554 139.201 125.858 141.765 128.759C148.783 125.684 156.387 123.773 164.082 125.61C164.324 125.671 164.572 125.736 164.82 125.813C166.569 122.361 166.295 118.986 166.295 118.986L138.382 122.554H138.385Z" fill="#CD2C4C"/>
<path d="M114.477 81.1956C114.477 81.1956 105.99 84.5608 109.84 96.0294C113.691 107.498 116.452 114.937 116.272 114.428C116.091 113.919 115.988 109.013 116.488 105.313C116.984 101.612 120.531 88.0484 118.914 84.6768C117.08 80.8572 114.477 81.1988 114.477 81.1988V81.1956Z" fill="#D6D9DA"/>
<path d="M118.914 84.6736C117.406 81.5373 115.386 81.2053 114.709 81.1891C111.342 84.3061 109.827 89.0444 110.817 93.6151C110.794 92.0002 112.054 91.088 112.399 89.6472C112.785 91.4361 112.083 93.2379 112.47 95.0269C113.7 100.075 115.154 104.826 116.159 109.619C116.204 108.207 116.307 106.676 116.491 105.313C116.99 101.612 120.535 88.0484 118.917 84.6768L118.914 84.6736Z" fill="#F8F6EC"/>
<path d="M116.275 114.425C116.249 114.348 116.223 114.167 116.201 113.909C116.198 114.009 116.194 114.106 116.191 114.206C116.268 114.418 116.301 114.496 116.275 114.425Z" fill="#F2FAFB"/>
<path d="M183.634 101.696C183.556 101.883 183.511 101.98 183.511 101.98C183.572 101.96 183.611 101.86 183.634 101.696Z" fill="#BFBAB3"/>
<path d="M176.941 65.9654C170.948 64.5471 167.791 70.7907 167.791 70.7907C168.271 70.9132 168.741 71.0905 169.205 71.3097C170.597 72.4475 170.868 74.4975 171.151 76.2962C171.519 78.6266 172.144 80.9313 173.165 83.0684C174.708 86.3046 177.103 89.067 179.248 91.9615C181.111 94.4757 182.835 97.1994 183.563 100.194C183.65 100.884 183.676 101.399 183.637 101.693C183.679 101.596 183.727 101.474 183.785 101.325C183.798 101.409 183.814 101.49 183.824 101.57C183.834 101.428 183.843 101.287 183.853 101.148C184.381 99.7491 185.412 96.5806 186.112 91.7101C187.085 84.9282 186.263 68.1702 176.945 65.9654H176.941Z" fill="#F8F6EC"/>
<path d="M181.865 86.6785C180.876 80.5961 174.663 77.4565 171.154 72.6635C170.458 71.6932 170.165 70.5522 170.23 69.4272C169.733 69.9204 169.344 70.5232 169.108 71.2678C169.141 71.2839 169.173 71.2968 169.208 71.3129C170.6 72.4507 170.871 74.5008 171.154 76.2994C171.522 78.6298 172.147 80.9345 173.168 83.0716C174.712 86.3078 177.106 89.0702 179.252 91.9647C180.943 94.2469 182.519 96.7063 183.341 99.3816C183.344 98.6628 183.402 97.9343 183.489 97.2059C182.703 92.5095 181.575 87.7583 178.572 84.2159C179.493 85.2796 180.592 85.979 181.871 86.6785H181.865Z" fill="#D6D9DA"/>
<path d="M133.848 68.0702C133.848 68.0702 129.614 70.1783 127.852 73.8754C127.852 73.8754 142.712 62.2134 163.283 68.341C163.283 68.341 165.503 69.1823 168.09 70.9358C169.943 72.1929 174.882 66.7003 173.848 63.203C172.237 57.7491 153.291 51.4669 137.911 55.9699C120.657 61.0208 113.6 72.0994 113.897 85.5632C113.897 85.5632 115.092 96.6192 115.15 96.3388C115.208 96.0584 117.406 81.547 124.275 75.2615C131.148 68.976 133.848 68.0734 133.848 68.0734V68.0702Z" fill="#F8F6EC"/>
<path d="M167.452 67.3353C160.653 60.9757 149.031 60.4245 141.472 65.1982C143.247 62.3037 146.498 61.182 149.386 59.7057C144.672 60.1312 139.79 61.456 136.017 64.3795C137.812 62.9193 139.606 61.2787 141.768 60.1731C128.619 61.1852 116.362 71.5546 113.887 84.4963C113.887 84.8509 113.887 85.2054 113.894 85.5632C113.894 85.5632 115.089 96.6192 115.147 96.3388C115.205 96.0584 117.403 81.5469 124.272 75.2615C131.145 68.976 133.845 68.0734 133.845 68.0734C133.845 68.0734 129.611 70.1815 127.849 73.8787C127.849 73.8787 142.709 62.2167 163.279 68.3442C163.279 68.3442 165.499 69.1855 168.087 70.939C169.347 71.7932 172.037 69.5239 173.3 66.884C171.428 68.212 168.983 68.818 167.449 67.3417L167.452 67.3353Z" fill="#D6D9DA"/>
<g opacity="0.89" style="mix-blend-mode:multiply">
<path d="M139.796 121.552C138.54 122.422 137.641 123.744 136.368 124.633C135.079 125.536 133.468 126.432 131.864 126.499C131.657 126.509 131.667 126.851 131.873 126.86C132.917 126.902 133.887 126.783 134.815 126.48C134.863 127.205 135.131 127.989 135.321 128.637C135.64 129.729 136.046 130.796 136.542 131.818C137.544 133.874 138.988 135.66 140.744 137.136C140.866 137.24 141.037 137.053 140.934 136.937C139.532 135.312 138.366 133.51 137.438 131.576C137 130.661 136.642 129.713 136.346 128.743C136.078 127.86 135.965 126.98 135.769 126.097C136.059 125.958 136.349 125.8 136.636 125.62C137.969 124.781 139.79 123.447 140.209 121.848C140.277 121.594 140.022 121.391 139.793 121.552H139.796Z" fill="#FCDABC"/>
</g>
<g opacity="0.89" style="mix-blend-mode:multiply">
<path d="M164.072 118.548C165.599 118.954 166.92 119.892 168.47 120.314C170.039 120.739 171.928 121.059 173.542 120.607C173.751 120.549 173.851 120.872 173.651 120.946C172.63 121.32 171.628 121.516 170.61 121.532C170.797 122.222 170.784 123.031 170.806 123.692C170.842 124.807 170.787 125.926 170.623 127.035C170.294 129.262 169.437 131.376 168.174 133.307C168.087 133.443 167.855 133.323 167.919 133.181C168.786 131.225 169.36 129.185 169.653 127.096C169.791 126.106 169.843 125.113 169.82 124.121C169.801 123.218 169.627 122.364 169.537 121.481C169.202 121.445 168.863 121.391 168.522 121.313C166.927 120.962 164.691 120.304 163.756 118.954C163.608 118.741 163.795 118.47 164.072 118.544V118.548Z" fill="#FCDABC"/>
</g>
<path d="M154.019 114.096C154.277 114.154 163.444 113.31 166.759 115.788C170.075 118.267 170.162 120.172 170.162 120.172C170.162 120.172 159.342 122.602 152.779 123.105C146.312 124.324 135.228 124.785 135.228 124.785C135.228 124.785 134.812 122.925 137.361 119.672C139.909 116.42 148.983 114.857 149.215 114.734L154.016 114.099L154.019 114.096Z" fill="#D6D9DA"/>
<path d="M137.367 124.672C137.86 124.643 138.417 124.611 139.033 124.572C139.245 123.025 139.468 121.439 140.373 120.143C139.026 121.32 138.011 122.931 137.367 124.672Z" fill="#E8E9EA"/>
<path d="M158.298 122.428C158.788 122.351 159.281 122.274 159.774 122.193C159.223 121.02 158.588 119.814 157.641 118.909C157.873 120.143 158.072 121.213 158.298 122.428Z" fill="#E8E9EA"/>
<path d="M162.49 116.462C163.669 117.874 164.713 119.482 165.441 121.155C165.96 121.052 166.453 120.952 166.908 120.862C165.783 119.07 164.507 117.394 162.49 116.462Z" fill="#E8E9EA"/>
<path d="M147.945 120.691C147.359 121.723 147.037 122.828 146.956 123.914C147.404 123.866 147.852 123.814 148.296 123.763C148.071 122.754 147.849 121.7 147.945 120.691Z" fill="#E8E9EA"/>
<path d="M151.963 123.247C152.24 123.199 152.518 123.15 152.782 123.102C152.875 123.096 152.972 123.086 153.065 123.08C152.753 121.964 152.501 120.836 151.905 119.769C151.738 120.962 151.757 122.122 151.967 123.247H151.963Z" fill="#E8E9EA"/>
<path d="M141.498 124.404C141.52 124.404 141.543 124.401 141.562 124.398C141.888 124.372 142.22 124.349 142.558 124.32C142.574 123.134 142.664 121.964 143.054 120.813C142.535 122.009 142.017 123.205 141.498 124.404Z" fill="#E8E9EA"/>
<path d="M146.299 112.501C145.548 112.984 144.871 113.625 144.52 114.435C144.169 115.244 144.191 116.243 144.73 116.942C145.271 117.648 146.202 117.938 147.088 118.106C149.769 118.618 152.588 118.386 155.163 117.477C156.668 116.946 158.25 115.979 158.52 114.438C158.746 113.168 157.969 111.907 156.958 111.082L146.302 112.497L146.299 112.501Z" fill="#FCDABC"/>
<g opacity="0.89" style="mix-blend-mode:multiply">
<path d="M158.166 112.536C158.272 113.941 157.122 115.411 155.901 115.924C154.415 116.391 152.804 115.134 151.805 116.095C150.471 117.258 148.851 118.048 147.281 118.141C149.901 118.606 152.65 118.367 155.16 117.481C156.664 116.949 158.246 115.982 158.517 114.441C158.633 113.783 158.478 113.129 158.166 112.536Z" fill="#FCDABC"/>
</g>
<g style="mix-blend-mode:multiply" opacity="0.89">
<path d="M128.142 118.763C129.892 119.743 132.224 119.718 134.009 118.944C135.07 118.486 136.062 117.842 136.909 117.049C137.837 116.182 138.263 115.273 138.611 114.057C138.701 113.745 138.234 113.487 138.05 113.751C136.922 115.35 135.424 116.817 133.7 117.706C132.134 118.515 130.082 119.228 128.342 118.351C128.077 118.219 127.878 118.618 128.142 118.763Z" fill="#FCDABC"/>
</g>
<g style="mix-blend-mode:multiply" opacity="0.89">
<path d="M174.802 111.411C173.416 113.039 171.064 113.877 168.979 113.764C167.742 113.7 166.505 113.422 165.354 112.945C164.098 112.423 163.328 111.672 162.516 110.586C162.306 110.309 162.677 109.877 162.964 110.07C164.7 111.25 166.756 112.159 168.821 112.414C170.697 112.642 173.026 112.591 174.441 111.073C174.657 110.841 175.005 111.169 174.799 111.411H174.802Z" fill="#FCDABC"/>
</g>
<path d="M165.055 68.4473C162.413 67.5803 159.874 66.8196 157.077 66.4295C154.357 66.0492 151.596 65.9654 148.864 66.1652C146.144 66.3651 143.441 66.8711 140.966 67.8542C138.472 68.8438 135.907 70.0751 133.903 71.7126C133.774 71.8189 133.923 72.0446 134.087 71.9511C136.358 70.6843 138.575 69.4981 141.182 68.7858C143.721 68.0928 146.35 67.5867 149.015 67.3804C151.619 67.1806 154.254 67.2934 156.851 67.6125C159.484 67.9348 162.248 68.4087 164.765 69.179C165.316 69.3466 165.599 68.6246 165.055 68.4441V68.4473Z" fill="#D6D9DA"/>
<g style="mix-blend-mode:multiply" opacity="0.89">
<path d="M120.473 108.049C122.281 107.869 123.863 108.507 125.596 108.691C125.725 108.703 125.809 108.607 125.722 108.536C124.581 107.617 122.078 107.488 120.467 107.662C120.128 107.701 120.122 108.081 120.473 108.049Z" fill="#FCDABC"/>
</g>
<g style="mix-blend-mode:multiply" opacity="0.89">
<path d="M119.987 110.583C120.992 110.415 122.078 110.383 123.103 110.37C124.04 110.36 125.023 110.425 125.925 110.199C126.109 110.154 126.102 109.977 125.922 109.938C124.936 109.716 123.831 109.761 122.809 109.793C121.759 109.825 120.805 109.912 119.839 110.212C119.523 110.309 119.639 110.641 119.987 110.583Z" fill="#FCDABC"/>
</g>
<g style="mix-blend-mode:multiply" opacity="0.89">
<path d="M121.604 112.6C122.32 112.381 123.045 112.239 123.808 112.133C124.501 112.033 125.181 111.978 125.8 111.717C126.025 111.624 125.906 111.398 125.671 111.392C124.24 111.337 122.616 111.721 121.321 112.136C120.95 112.256 121.227 112.72 121.608 112.604L121.604 112.6Z" fill="#FCDABC"/>
</g>
<g style="mix-blend-mode:multiply" opacity="0.89">
<path d="M178.021 100.552C176.455 100.9 175.308 101.87 173.909 102.502C173.806 102.55 173.706 102.489 173.761 102.405C174.46 101.322 176.519 100.526 177.918 100.226C178.214 100.165 178.324 100.484 178.021 100.548V100.552Z" fill="#FCDABC"/>
</g>
<g style="mix-blend-mode:multiply" opacity="0.89">
<path d="M179.136 102.534C178.246 102.669 177.328 102.943 176.468 103.217C175.678 103.466 174.873 103.791 174.054 103.852C173.89 103.865 173.845 103.717 173.983 103.633C174.747 103.176 175.685 102.911 176.551 102.653C177.441 102.392 178.262 102.202 179.158 102.186C179.448 102.18 179.445 102.489 179.136 102.537V102.534Z" fill="#FCDABC"/>
</g>
<g style="mix-blend-mode:multiply" opacity="0.89">
<path d="M178.346 104.671C177.686 104.687 177.038 104.768 176.371 104.887C175.762 104.993 175.179 105.135 174.586 105.087C174.37 105.071 174.409 104.852 174.602 104.777C175.785 104.339 177.254 104.21 178.453 104.204C178.797 104.204 178.694 104.665 178.343 104.671H178.346Z" fill="#FCDABC"/>
</g>
<g style="mix-blend-mode:multiply">
<path d="M135.969 86.9106C139.774 85.8469 143.637 85.0894 147.549 84.5318C151.377 83.987 155.201 83.9709 159.045 83.6582C159.187 83.6453 159.239 83.4165 159.078 83.3972C155.321 82.9491 151.367 83.4519 147.646 83.9999C143.673 84.5833 139.755 85.5632 135.901 86.6753C135.746 86.7204 135.817 86.9525 135.969 86.9106Z" fill="#FCDABC"/>
</g>
<g style="mix-blend-mode:multiply">
<path d="M140.728 82.0175C144.614 80.9442 148.406 80.0481 152.437 79.7096C152.614 79.6935 152.611 79.4421 152.434 79.4357C148.445 79.3035 144.433 80.6412 140.641 81.7145C140.444 81.7693 140.531 82.0723 140.731 82.0175H140.728Z" fill="#FCDABC"/>
</g>
<path d="M184.594 99.0077L184.417 97.0834C184.381 96.6933 184.133 96.3807 183.856 96.3742L181.89 96.342C181.733 96.2034 181.549 96.1035 181.349 96.0551C172.372 93.9858 165.296 95.1397 160.94 96.4709C156.175 97.9311 153.549 99.8909 153.439 99.9747C153.091 100.239 152.901 100.687 152.894 101.161C148.818 100.661 145.79 101.47 143.924 102.279C143.785 101.828 143.483 101.445 143.077 101.277C142.948 101.225 139.874 99.9779 134.873 99.7458C130.301 99.5331 123.151 100.165 115.054 104.381C114.873 104.474 114.728 104.616 114.612 104.784L112.579 105.322C112.299 105.396 112.131 105.764 112.205 106.147L112.566 108.049C112.637 108.42 112.901 108.681 113.182 108.658L114.941 108.5C115.879 111.517 117.644 116.739 119.043 118.132C119.449 118.538 120.38 119.463 127.333 118.593C127.633 118.554 127.942 118.515 128.264 118.47C132.308 117.913 136.445 117.036 138.092 116.591C139.758 116.14 141.027 113.822 141.971 109.5C142.184 108.523 142.355 107.562 142.484 106.708C143.025 106.396 148.567 103.43 155.45 104.955C155.823 105.777 156.268 106.708 156.767 107.643C158.865 111.582 160.727 113.509 162.458 113.532C164.169 113.555 168.406 113.381 172.462 112.923C172.785 112.887 173.094 112.849 173.394 112.813C180.347 111.94 180.991 110.815 181.272 110.325C182.238 108.636 182.512 103.156 182.59 100.01L184.198 99.7491C184.458 99.7072 184.629 99.388 184.597 99.0141L184.594 99.0077ZM137.647 114.738C136.097 115.157 131.973 116.03 128.052 116.575C121.15 117.535 120.087 116.788 119.987 116.701C118.978 115.695 117.261 110.795 116.175 107.205C128.174 100.961 138.002 102.866 141.246 103.794C140.837 107.972 139.568 114.219 137.641 114.738H137.647ZM179.957 109.171C179.886 109.28 179.061 110.264 172.137 111.04C168.203 111.482 163.982 111.656 162.371 111.633C160.37 111.608 157.428 105.889 155.888 101.957C158.768 100.262 167.736 95.9939 181.033 99.0625C180.969 102.798 180.656 107.952 179.957 109.171Z" fill="#696B6E"/>
<path d="M185.283 179.923L182.583 172.919C180.486 172.96 175.678 168.113 174.602 166.436C173.526 164.757 172.682 162.846 171.006 161.685C169.953 160.954 168.66 160.596 167.497 160.028C167.227 159.896 166.959 159.748 166.701 159.584C165.416 158.746 165.918 156.828 167.484 156.631C169.859 156.331 172.369 157.018 174.087 158.565C174.341 156.028 173.41 153.43 171.589 151.59C169.769 149.749 167.091 148.695 164.394 148.76C163.495 148.782 162.567 148.918 161.759 148.434C161.388 148.212 161.137 147.841 161.127 147.425C161.111 146.507 162.184 146.059 163.089 145.878C168.461 144.801 174.895 147.696 178.591 151.435C178.591 151.435 180.263 151.574 182.822 152.392C185.377 153.211 189.878 153.811 190.826 158.211C191.773 162.607 193.268 168.983 192.504 170.353L194.905 176.89L185.283 179.929V179.923Z" fill="#FEDDC0"/>
<g style="mix-blend-mode:multiply" opacity="0.89">
<path d="M187.655 160.547C187.716 160.183 187.735 159.816 187.819 159.452C187.829 159.413 187.761 159.4 187.748 159.435C187.623 159.809 187.436 160.157 187.294 160.525C186.849 160.518 186.398 160.586 185.986 160.728C185.664 160.838 185.883 161.289 186.205 161.179C187.51 160.734 189.392 161.17 189.414 162.717C189.437 164.203 187.271 164.654 186.047 164.786C185.18 164.88 184.555 164.564 184.059 163.919C183.605 163.329 183.218 162.659 182.889 161.998C182.525 161.263 182.251 160.444 182.383 159.616C182.474 159.045 182.806 158.562 183.231 158.156C184.214 157.211 185.509 156.667 186.617 155.88C186.811 155.745 186.608 155.426 186.395 155.542C185.077 156.26 183.579 156.999 182.586 158.117C181.378 159.477 181.858 161.221 182.638 162.63C182.957 163.207 183.302 163.851 183.756 164.374C182.825 164.999 181.53 164.767 180.679 164.141C179.699 163.419 179.239 162.243 178.862 161.163C178.475 160.067 177.979 158.797 178.469 157.643C178.697 157.102 179.123 156.657 179.583 156.277C179.98 155.948 180.466 155.68 180.798 155.29C180.843 155.239 180.789 155.142 180.714 155.165C180.122 155.335 179.564 155.767 179.113 156.164C178.646 156.57 178.24 157.063 178.03 157.63C177.55 158.929 178.114 160.319 178.556 161.537C178.91 162.517 179.371 163.558 180.183 164.274C179.716 164.422 179.297 164.548 178.765 164.496C178.172 164.438 177.595 164.225 177.112 163.906C176.097 163.229 175.511 162.12 175.105 161.037C174.663 159.861 174.312 158.543 174.621 157.285C174.892 156.196 175.785 155.213 176.928 154.865C176.993 154.845 176.954 154.765 176.896 154.768C175.565 154.868 174.612 155.896 174.257 157.076C173.842 158.452 174.238 159.912 174.712 161.208C175.163 162.44 175.849 163.706 177.057 164.409C177.979 164.947 179.635 165.318 180.602 164.59C180.685 164.644 180.769 164.693 180.859 164.741C181.852 165.263 183.115 165.353 184.075 164.696C184.101 164.718 184.127 164.741 184.152 164.764C184.832 165.337 185.705 165.37 186.575 165.202C188.016 164.922 190.001 164.38 189.943 162.662C189.901 161.366 188.844 160.676 187.658 160.544L187.655 160.547Z" fill="#FCDBBF"/>
<path d="M184.926 169.192C184.591 168.957 184.288 168.68 184.024 168.374C183.521 167.79 183.025 167.013 182.822 166.279C182.786 166.156 182.599 166.182 182.612 166.314C182.657 166.765 182.68 167.175 182.86 167.597C183.034 168.003 183.279 168.393 183.566 168.735C184.069 169.337 184.9 170.114 185.754 170.201C185.989 170.227 186.053 169.956 185.905 169.831C185.625 169.586 185.238 169.408 184.929 169.189L184.926 169.192Z" fill="#FCDBBF"/>
</g>
<path d="M162.335 181.647L149.63 181.779C146.569 181.812 144.037 179.462 143.976 176.532L143.318 144.386C143.257 141.456 145.693 139.054 148.754 139.022L161.459 138.89C164.52 138.858 167.053 141.207 167.114 144.137L167.771 176.284C167.832 179.214 165.396 181.615 162.335 181.647Z" fill="#424143"/>
<path d="M147.323 177.409C149.36 176.303 152.733 175.765 153.352 173.592C150.948 173.476 148.628 173.866 146.296 174.556C150.349 172.848 154.953 172.867 158.524 170.237C158.846 170.053 158.453 169.431 158.243 169.421C153.471 168.393 148.738 168.867 143.995 169.64C149.192 168.087 154.744 168.051 159.838 166.494C160.26 166.414 158.839 165.344 158.014 165.105C154.174 164.319 150.552 163.345 146.756 163.964C151.006 162.565 155.598 162.884 160.112 162.601C160.847 162.536 160.583 161.421 160.186 160.902C159.187 159.751 157.747 159.184 156.294 158.913C152.137 158.269 147.742 157.833 143.615 158.646L143.979 176.532C144.011 178.147 144.797 179.588 146.009 180.548C146.167 179.246 146.263 178.002 147.327 177.412L147.323 177.409Z" fill="#322F42"/>
<path d="M157.621 143.364L153.532 143.406C152.923 143.412 152.414 142.942 152.405 142.358V142.207C152.389 141.623 152.878 141.143 153.487 141.137L157.576 141.095C158.185 141.088 158.694 141.559 158.704 142.142V142.294C158.72 142.877 158.23 143.357 157.621 143.364Z" fill="#535046"/>
<path d="M157.473 143.171C156.932 143.177 156.481 142.758 156.471 142.239C156.461 141.723 156.893 141.295 157.435 141.288C157.976 141.282 158.427 141.701 158.437 142.22C158.446 142.735 158.015 143.164 157.473 143.171Z" fill="#606161"/>
<path d="M157.451 143.074C156.977 143.08 156.584 142.713 156.574 142.258C156.564 141.807 156.945 141.43 157.418 141.427C157.892 141.42 158.285 141.788 158.295 142.242C158.304 142.693 157.924 143.071 157.451 143.074Z" fill="white"/>
<path d="M133.713 181.918C135.382 181.515 137.087 181.096 138.511 180.203C140.489 178.966 141.791 176.903 143.943 175.945C146.84 174.659 150.684 175.639 153.201 173.805C153.729 173.418 154.18 172.719 153.787 172.213C153.504 171.845 152.94 171.803 152.45 171.794C149.653 171.739 146.856 171.687 144.063 171.632C148.541 170.975 153.023 170.317 157.502 169.657C157.94 169.592 158.456 169.473 158.604 169.089C158.723 168.783 158.53 168.435 158.24 168.245C157.953 168.055 157.592 167.987 157.244 167.926C152.985 167.191 148.616 166.991 144.301 167.333C148.548 165.821 153.214 165.292 157.741 165.814C158.34 165.882 158.959 165.969 159.542 165.83C160.128 165.692 160.676 165.257 160.702 164.706C160.74 163.848 159.638 163.374 158.727 163.162C154.625 162.211 150.365 161.85 146.144 162.088C149.982 160.812 154.232 160.583 158.214 161.434C158.727 161.543 159.255 161.672 159.774 161.601C160.296 161.531 160.815 161.199 160.885 160.718C160.992 159.999 160.122 159.513 159.384 159.242C156.706 158.259 153.938 157.427 151.077 157.102C148.216 156.776 145.242 156.973 142.584 157.982C139.768 159.052 137.428 160.979 135.553 163.178C133.678 165.376 127.224 174.401 125.787 176.861L119.449 183.849C119.449 183.849 121.363 187.907 124.746 188.829C128.129 189.754 128.458 188.974 128.458 188.974L133.703 181.915L133.713 181.918Z" fill="#FEDDC0"/>
<g style="mix-blend-mode:multiply" opacity="0.89">
<path d="M142.387 174.101C142.819 174.701 142.526 175.397 142.042 175.849C139.822 177.644 137.586 179.256 134.85 180.422C133.761 180.925 132.54 180.584 131.319 180.239C131.416 183.481 128.245 185.918 125.725 187.965C125.364 188.281 124.955 188.542 124.52 188.761C124.598 188.787 124.678 188.81 124.755 188.832C128.139 189.757 128.467 188.977 128.467 188.977L133.713 181.918C135.382 181.515 137.087 181.096 138.511 180.203C140.489 178.965 141.791 176.903 143.943 175.945C146.84 174.659 150.684 175.639 153.201 173.805C153.223 173.789 153.242 173.773 153.265 173.753C149.888 175.207 145.941 175.21 142.384 174.101H142.387Z" fill="#FCDBBF"/>
</g>
<path d="M117.058 202.464L134.622 184.845L127.121 174.798L105.629 191.508C101.791 194.815 102.871 199.698 106.145 202.802L106.199 202.828C109.444 205.903 114.435 205.004 117.058 202.464Z" fill="#CACCCD"/>
<path d="M194.183 198.947L180.473 175.681L193.281 169.763L208.908 192.594C211.77 196.965 209.169 201.152 204.961 202.941C200.792 204.713 196.058 202.196 194.183 198.947Z" fill="#CACCCD"/>
</svg>
