<?xml version="1.0" encoding="utf-8"?>
<!-- Generator: Adobe Illustrator 26.0.1, SVG Export Plug-In . SVG Version: 6.00 Build 0)  -->
<svg version="1.1" id="Layer_1" xmlns="http://www.w3.org/2000/svg" xmlns:xlink="http://www.w3.org/1999/xlink" x="0px" y="0px"
	 viewBox="0 0 118.5 121.32" style="enable-background:new 0 0 118.5 121.32;" xml:space="preserve">
<style type="text/css">
	.st0{fill:#0B4166;}
</style>
<path class="st0" d="M91.33,9.61H27.17c-7.83,0-14.18,6.35-14.18,14.18v73.74c0,4.96,2.55,9.33,6.41,11.86V54.96h0.01c0,0,0,0,0,0
	c0.28-15.13,8.93-28.25,21.5-34.92c5.63-2.99,12.04-4.68,18.85-4.68c13.3,0,25.11,6.46,32.47,16.41c0.93,1.26,1.37,2.7,1.37,4.13
	c0,2.65-1.5,5.22-4.17,6.39c-2.97,1.3-6.46,0.4-8.38-2.21c-5.06-6.88-13.37-11.22-22.65-10.76C50.22,29.74,43,33.92,38.43,40.15
	c-2.98,4.05-4.83,8.98-5.08,14.3c-0.02,0.41-0.03,0.83-0.03,1.24s0.01,0.82,0.03,1.23h-0.03v54.8h58c7.83,0,14.18-6.35,14.18-14.18
	V23.79C105.51,15.96,99.16,9.61,91.33,9.61z M92.51,79.25c-0.89,1.24-1.85,2.42-2.88,3.55c-7.34,8.1-17.93,13.21-29.69,13.26
	c-7.31,0.04-14.21-1.91-20.16-5.33c-0.91-0.52-1.46-1.49-1.46-2.54V73.06c0-0.61,0.76-0.9,1.16-0.43c4.85,5.8,12.13,9.5,20.28,9.5
	c3.47,0,6.78-0.67,9.82-1.89c4.48-1.8,8.36-4.79,11.24-8.58c0.01-0.02,0.03-0.04,0.04-0.06c0.09-0.12,0.17-0.23,0.26-0.35
	c1.27-1.63,3.25-2.67,5.47-2.67c0.86,0,1.68,0.15,2.43,0.44c0.02,0.01,0.04,0.01,0.06,0.02c0.2,0.09,0.4,0.18,0.6,0.26
	c0.03,0.01,0.07,0.03,0.1,0.05C93.58,71.06,94.95,75.86,92.51,79.25z M98.89,57.4c-0.77,3.01-3.49,5.24-6.74,5.24
	c-3.85,0-6.96-3.11-6.96-6.96c0-2.23,1.05-4.21,2.68-5.48c1.18-0.92,2.67-1.47,4.28-1.47c3.84,0,6.96,3.12,6.96,6.96
	C99.1,56.28,99.03,56.85,98.89,57.4z"/>
</svg>
